<?xml version="1.0" encoding="UTF-8" standalone="no"?>
<svg
   xmlns:dc="http://purl.org/dc/elements/1.1/"
   xmlns:cc="http://creativecommons.org/ns#"
   xmlns:rdf="http://www.w3.org/1999/02/22-rdf-syntax-ns#"
   xmlns:svg="http://www.w3.org/2000/svg"
   xmlns="http://www.w3.org/2000/svg"
   xmlns:sodipodi="http://sodipodi.sourceforge.net/DTD/sodipodi-0.dtd"
   xmlns:inkscape="http://www.inkscape.org/namespaces/inkscape"
   version="1.1"
   id="svg2"
   xml:space="preserve"
   width="186.66667"
   height="186.66667"
   viewBox="0 0 186.66667 186.66667"
   sodipodi:docname="1_d_a_1.eps"><metadata
     id="metadata8"><rdf:RDF><cc:Work
         rdf:about=""><dc:format>image/svg+xml</dc:format><dc:type
           rdf:resource="http://purl.org/dc/dcmitype/StillImage" /></cc:Work></rdf:RDF></metadata><defs
     id="defs6" /><sodipodi:namedview
     pagecolor="#ffffff"
     bordercolor="#666666"
     borderopacity="1"
     objecttolerance="10"
     gridtolerance="10"
     guidetolerance="10"
     inkscape:pageopacity="0"
     inkscape:pageshadow="2"
     inkscape:window-width="640"
     inkscape:window-height="480"
     id="namedview4" /><g
     id="g10"
     inkscape:groupmode="layer"
     inkscape:label="ink_ext_XXXXXX"
     transform="matrix(1.3333333,0,0,-1.3333333,0,186.66667)"><g
       id="g12"
       transform="scale(0.1)"><path
         d="M 150,150 H 1350 M 150,150 V 1350"
         style="fill:none;stroke:#000000;stroke-width:10;stroke-linecap:butt;stroke-linejoin:miter;stroke-miterlimit:10;stroke-dasharray:none;stroke-opacity:1"
         id="path14" /><path
         d="M 150,150 H 1350 M 150,150 V 1350 M 750,130 v 40"
         style="fill:none;stroke:#000000;stroke-width:10;stroke-linecap:butt;stroke-linejoin:miter;stroke-miterlimit:10;stroke-dasharray:none;stroke-opacity:1"
         id="path16" /><path
         d="m 150,150 h 1200 m -1200,0 v 1200 m -20,-300 h 40"
         style="fill:none;stroke:#000000;stroke-width:10;stroke-linecap:butt;stroke-linejoin:miter;stroke-miterlimit:10;stroke-dasharray:none;stroke-opacity:1"
         id="path18" /><g
         id="g20"
         transform="scale(10)"><text
           transform="matrix(1,0,0,-1,72.5094,3.46875)"
           style="font-variant:normal;font-weight:normal;font-size:10px;font-family:CMSS10;-inkscape-font-specification:CMSS10;writing-mode:lr-tb;fill:#000000;fill-opacity:1;fill-rule:nonzero;stroke:none"
           id="text26"><tspan
             x="0"
             y="0"
             id="tspan22">4</tspan><tspan
             x="-66.490601"
             y="-98.265602"
             id="tspan24">6</tspan></text></g><path
         d="M 156.242,145.84 726.07,1000.59 737.586,977.293 750,1050 l -62.336,-39.42 25.926,-1.68 -569.832,-854.74 12.484,-8.32"
         style="fill:#0000ff;fill-opacity:1;fill-rule:nonzero;stroke:none"
         id="path28" /><path
         d="m 765,1050 c 0,8.29 -6.715,15 -15,15 v 0 c -8.285,0 -15,-6.71 -15,-15 v 0 c 0,-8.29 6.715,-15 15,-15 v 0 c 8.285,0 15,6.71 15,15"
         style="fill:#0000ff;fill-opacity:1;fill-rule:nonzero;stroke:none"
         id="path30" /><g
         id="g32"
         transform="scale(10)"><text
           transform="matrix(1,0,0,-1,15,3.60938)"
           style="font-variant:normal;font-size:9px;font-family:'Nimbus Roman';-inkscape-font-specification:NimbusRomNo9L-ReguItal;writing-mode:lr-tb;fill:#000000;fill-opacity:1;fill-rule:nonzero;stroke:none"
           id="text42"><tspan
             x="0"
             y="0"
             id="tspan34">O</tspan><tspan
             x="63.599998"
             y="-104.991"
             id="tspan36">P</tspan><tspan
             x="110.0305"
             y="-15.0699"
             id="tspan38">x</tspan><tspan
             x="3.6005001"
             y="-121.4139"
             id="tspan40">y</tspan></text></g></g></g></svg>
