<?xml version="1.0" encoding="UTF-8" standalone="no"?>
<svg
   xmlns:dc="http://purl.org/dc/elements/1.1/"
   xmlns:cc="http://creativecommons.org/ns#"
   xmlns:rdf="http://www.w3.org/1999/02/22-rdf-syntax-ns#"
   xmlns:svg="http://www.w3.org/2000/svg"
   xmlns="http://www.w3.org/2000/svg"
   xmlns:sodipodi="http://sodipodi.sourceforge.net/DTD/sodipodi-0.dtd"
   xmlns:inkscape="http://www.inkscape.org/namespaces/inkscape"
   version="1.1"
   id="svg2"
   xml:space="preserve"
   width="426.66666"
   height="213.33333"
   viewBox="0 0 426.66666 213.33333"
   sodipodi:docname="4_a_parallelogram_rotated.eps"><metadata
     id="metadata8"><rdf:RDF><cc:Work
         rdf:about=""><dc:format>image/svg+xml</dc:format><dc:type
           rdf:resource="http://purl.org/dc/dcmitype/StillImage" /></cc:Work></rdf:RDF></metadata><defs
     id="defs6" /><sodipodi:namedview
     pagecolor="#ffffff"
     bordercolor="#666666"
     borderopacity="1"
     objecttolerance="10"
     gridtolerance="10"
     guidetolerance="10"
     inkscape:pageopacity="0"
     inkscape:pageshadow="2"
     inkscape:window-width="640"
     inkscape:window-height="480"
     id="namedview4" /><g
     id="g10"
     inkscape:groupmode="layer"
     inkscape:label="ink_ext_XXXXXX"
     transform="matrix(1.3333333,0,0,-1.3333333,0,213.33333)"><g
       id="g12"
       transform="scale(0.1)"><path
         d="M 50,264.285 H 1550 M 264.285,50 v 1500"
         style="fill:none;stroke:#000000;stroke-width:10;stroke-linecap:butt;stroke-linejoin:miter;stroke-miterlimit:1;stroke-dasharray:none;stroke-opacity:1"
         id="path14" /><path
         d="M 50,264.285 H 1550 M 264.285,50 V 1550 M 478.57,478.57 h 642.86"
         style="fill:none;stroke:#000000;stroke-width:10;stroke-linecap:butt;stroke-linejoin:miter;stroke-miterlimit:1;stroke-dasharray:none;stroke-opacity:1"
         id="path16" /><path
         d="m 692.855,478.57 c 0,35.903 -9.019,71.231 -26.23,102.735"
         style="fill:none;stroke:#000000;stroke-width:10;stroke-linecap:butt;stroke-linejoin:miter;stroke-miterlimit:1;stroke-dasharray:none;stroke-opacity:1"
         id="path18" /><g
         id="g20"
         transform="scale(10)"><text
           transform="matrix(1,0,0,-1,73.3957,51.7527)"
           style="font-variant:normal;font-weight:normal;font-size:10.8px;font-family:CMMI12;-inkscape-font-specification:CMMI12;writing-mode:lr-tb;fill:#000000;fill-opacity:1;fill-rule:nonzero;stroke:none"
           id="text24"><tspan
             x="0"
             y="0"
             id="tspan22">θ</tspan></text></g><path
         d="m 478.57,478.57 564.16,308.203 358.7,684.307 -564.168,-308.2 z"
         style="fill:#cccccc;fill-opacity:1;fill-rule:nonzero;stroke:none"
         id="path26" /><path
         d="m 478.57,478.57 564.16,308.203 358.7,684.307 -564.168,-308.2 z"
         style="fill:none;stroke:#ff0000;stroke-width:10;stroke-linecap:butt;stroke-linejoin:miter;stroke-miterlimit:1;stroke-dasharray:none;stroke-opacity:1"
         id="path28" /><path
         d="M 480.969,474.184 1013.31,765 l -0.41,-17.312 29.83,39.085 -49.007,-3.984 14.787,-9.012 -532.334,-290.816 4.793,-8.777"
         style="fill:#000000;fill-opacity:1;fill-rule:nonzero;stroke:none"
         id="path30" /><path
         d="m 483,476.25 341.859,652.19 9.262,-14.63 3.141,49.07 -38.567,-30.5 L 816,1133.09 474.145,480.895 483,476.25"
         style="fill:#000000;fill-opacity:1;fill-rule:nonzero;stroke:none"
         id="path32" /><g
         id="g34"
         transform="scale(10)"><text
           transform="matrix(1,0,0,-1,106.973,71.1953)"
           style="font-variant:normal;font-weight:normal;font-size:10.8px;font-family:CMBX12;-inkscape-font-specification:CMBX12;writing-mode:lr-tb;fill:#000000;fill-opacity:1;fill-rule:nonzero;stroke:none"
           id="text40"><tspan
             x="0"
             y="0"
             id="tspan36">u</tspan><tspan
             x="-32.335201"
             y="-47.792599"
             id="tspan38">v</tspan></text></g><path
         d="m 498.57,478.57 c 0,11.047 -8.953,20 -20,20 v 0 c -11.043,0 -20,-8.953 -20,-20 v 0 c 0,-11.043 8.957,-20 20,-20 v 0 c 11.047,0 20,8.957 20,20"
         style="fill:#000000;fill-opacity:1;fill-rule:nonzero;stroke:none"
         id="path42" /><g
         id="g44"
         transform="scale(10)"><text
           transform="matrix(1,0,0,-1,36.8129,37.8047)"
           style="font-variant:normal;font-weight:normal;font-size:10.8px;font-family:CMMI12;-inkscape-font-specification:CMMI12;writing-mode:lr-tb;fill:#000000;fill-opacity:1;fill-rule:nonzero;stroke:none"
           id="text48"><tspan
             x="0"
             y="0"
             id="tspan46">Q</tspan></text></g><path
         d="M 1650,264.285 H 3150 M 1864.29,50 v 1500"
         style="fill:none;stroke:#000000;stroke-width:10;stroke-linecap:butt;stroke-linejoin:miter;stroke-miterlimit:1;stroke-dasharray:none;stroke-opacity:1"
         id="path50" /><path
         d="m 1864.29,264.285 h 642.85 L 3150,692.855 h -642.86 z"
         style="fill:#cccccc;fill-opacity:1;fill-rule:nonzero;stroke:none"
         id="path52" /><path
         d="m 1864.29,264.285 h 642.85 L 3150,692.855 h -642.86 z"
         style="fill:none;stroke:#ff0000;stroke-width:10;stroke-linecap:butt;stroke-linejoin:miter;stroke-miterlimit:1;stroke-dasharray:none;stroke-opacity:1"
         id="path54" /><path
         d="m 1864.29,259.285 h 606.59 l -8.66,-15 44.92,20 -44.92,20 8.66,-15 h -606.59 v -10"
         style="fill:#000000;fill-opacity:1;fill-rule:nonzero;stroke:none"
         id="path56" /><path
         d="m 1867.06,260.125 612.69,408.457 1.11,-17.285 26.28,41.558 -48.47,-8.273 15.53,-7.68 -612.69,-408.457 5.55,-8.32"
         style="fill:#000000;fill-opacity:1;fill-rule:nonzero;stroke:none"
         id="path58" /><g
         id="g60"
         transform="scale(10)"><text
           transform="matrix(1,0,0,-1,253.414,15.8391)"
           style="font-variant:normal;font-weight:normal;font-size:10.8px;font-family:CMBX12;-inkscape-font-specification:CMBX12;writing-mode:lr-tb;fill:#000000;fill-opacity:1;fill-rule:nonzero;stroke:none"
           id="text64"><tspan
             x="0"
             y="0"
             id="tspan62">u</tspan></text><text
           transform="matrix(1,0,0,-1,260.13861,19.7434)"
           style="font-variant:normal;font-weight:normal;font-size:7.2px;font-family:CMSY8;-inkscape-font-specification:CMSY8;writing-mode:lr-tb;fill:#000000;fill-opacity:1;fill-rule:nonzero;stroke:none"
           id="text68"><tspan
             x="0"
             y="0"
             id="tspan66">′</tspan></text><text
           transform="matrix(1,0,0,-1,239.38981,71.9856)"
           style="font-variant:normal;font-weight:normal;font-size:10.8px;font-family:CMBX12;-inkscape-font-specification:CMBX12;writing-mode:lr-tb;fill:#000000;fill-opacity:1;fill-rule:nonzero;stroke:none"
           id="text72"><tspan
             x="0"
             y="0"
             id="tspan70">v</tspan></text><text
           transform="matrix(1,0,0,-1,245.94645,75.89029)"
           style="font-variant:normal;font-weight:normal;font-size:7.2px;font-family:CMSY8;-inkscape-font-specification:CMSY8;writing-mode:lr-tb;fill:#000000;fill-opacity:1;fill-rule:nonzero;stroke:none"
           id="text76"><tspan
             x="0"
             y="0"
             id="tspan74">′</tspan></text></g><path
         d="m 1884.29,264.285 c 0,11.047 -8.96,20 -20,20 v 0 c -11.05,0 -20,-8.953 -20,-20 v 0 c 0,-11.047 8.95,-20 20,-20 v 0 c 11.04,0 20,8.953 20,20"
         style="fill:#000000;fill-opacity:1;fill-rule:nonzero;stroke:none"
         id="path78" /><g
         id="g80"
         transform="scale(10)"><text
           transform="matrix(1,0,0,-1,175.677,29.1285)"
           style="font-variant:normal;font-weight:normal;font-size:10.8px;font-family:CMMI12;-inkscape-font-specification:CMMI12;writing-mode:lr-tb;fill:#000000;fill-opacity:1;fill-rule:nonzero;stroke:none"
           id="text84"><tspan
             x="0"
             y="0"
             id="tspan82">O</tspan></text></g></g></g></svg>
