<?xml version="1.0" encoding="UTF-8" standalone="no"?>
<svg
   xmlns:dc="http://purl.org/dc/elements/1.1/"
   xmlns:cc="http://creativecommons.org/ns#"
   xmlns:rdf="http://www.w3.org/1999/02/22-rdf-syntax-ns#"
   xmlns:svg="http://www.w3.org/2000/svg"
   xmlns="http://www.w3.org/2000/svg"
   xmlns:sodipodi="http://sodipodi.sourceforge.net/DTD/sodipodi-0.dtd"
   xmlns:inkscape="http://www.inkscape.org/namespaces/inkscape"
   version="1.1"
   id="svg2"
   xml:space="preserve"
   width="426.66666"
   height="120"
   viewBox="0 0 426.66666 120"
   sodipodi:docname="4_a_parallelogram_shear.eps"><metadata
     id="metadata8"><rdf:RDF><cc:Work
         rdf:about=""><dc:format>image/svg+xml</dc:format><dc:type
           rdf:resource="http://purl.org/dc/dcmitype/StillImage" /></cc:Work></rdf:RDF></metadata><defs
     id="defs6" /><sodipodi:namedview
     pagecolor="#ffffff"
     bordercolor="#666666"
     borderopacity="1"
     objecttolerance="10"
     gridtolerance="10"
     guidetolerance="10"
     inkscape:pageopacity="0"
     inkscape:pageshadow="2"
     inkscape:window-width="640"
     inkscape:window-height="480"
     id="namedview4" /><g
     id="g10"
     inkscape:groupmode="layer"
     inkscape:label="ink_ext_XXXXXX"
     transform="matrix(1.3333333,0,0,-1.3333333,0,120)"><g
       id="g12"
       transform="scale(0.1)"><path
         d="m 200,130 h 1200 l 200,640 H 400 Z"
         style="fill:#cccccc;fill-opacity:1;fill-rule:nonzero;stroke:none"
         id="path14" /><path
         d="m 200,130 h 1200 l 200,640 H 400 Z"
         style="fill:none;stroke:#000000;stroke-width:10;stroke-linecap:butt;stroke-linejoin:miter;stroke-miterlimit:1;stroke-dasharray:none;stroke-opacity:1"
         id="path16" /><path
         d="M 200,130 H 600 L 800,770 H 400 Z"
         style="fill:none;stroke:#000000;stroke-width:10;stroke-linecap:butt;stroke-linejoin:miter;stroke-miterlimit:1;stroke-dasharray:none;stroke-opacity:1"
         id="path18" /><path
         d="m 200,125 h 1163.74 l -8.66,-15 44.92,20 -44.92,20 8.66,-15 H 200 v -10"
         style="fill:#000000;fill-opacity:1;fill-rule:nonzero;stroke:none"
         id="path20" /><path
         d="m 200,125 h 363.738 l -8.66,-15 44.922,20 -44.922,20 8.66,-15 H 200 v -10"
         style="fill:#000000;fill-opacity:1;fill-rule:nonzero;stroke:none"
         id="path22" /><path
         d="M 204.773,128.508 393.957,733.898 405.691,721.16 400,770 l -32.488,-36.91 16.898,3.793 -189.183,-605.391 9.546,-2.984"
         style="fill:#000000;fill-opacity:1;fill-rule:nonzero;stroke:none"
         id="path24" /><g
         id="g26"
         transform="scale(10)"><text
           transform="matrix(1,0,0,-1,142.7,3.72813)"
           style="font-variant:normal;font-weight:normal;font-size:10.8px;font-family:CMMI12;-inkscape-font-specification:CMMI12;writing-mode:lr-tb;fill:#000000;fill-opacity:1;fill-rule:nonzero;stroke:none"
           id="text30"><tspan
             x="0"
             y="0"
             id="tspan28">k</tspan></text><text
           transform="matrix(1,0,0,-1,148.54063,3.72813)"
           style="font-variant:normal;font-weight:normal;font-size:10.8px;font-family:CMBX12;-inkscape-font-specification:CMBX12;writing-mode:lr-tb;fill:#000000;fill-opacity:1;fill-rule:nonzero;stroke:none"
           id="text38"><tspan
             x="0"
             y="0"
             id="tspan32">u</tspan><tspan
             x="-85.840599"
             y="-0.889844"
             id="tspan34">u</tspan><tspan
             x="-119.4293"
             y="-70.880844"
             id="tspan36">v</tspan></text></g><path
         d="M 400,770 V 130"
         style="fill:none;stroke:#000000;stroke-width:8;stroke-linecap:butt;stroke-linejoin:miter;stroke-miterlimit:1;stroke-dasharray:none;stroke-opacity:1"
         id="path40" /><path
         d="M 400,770 V 130 m 0,70 h 70 v -70"
         style="fill:none;stroke:#000000;stroke-width:8;stroke-linecap:butt;stroke-linejoin:miter;stroke-miterlimit:1;stroke-dasharray:none;stroke-opacity:1"
         id="path42" /><g
         id="g44"
         transform="scale(10)"><text
           transform="matrix(1,0,0,-1,42.7,41.2641)"
           style="font-variant:normal;font-weight:normal;font-size:10.8px;font-family:CMMI12;-inkscape-font-specification:CMMI12;writing-mode:lr-tb;fill:#000000;fill-opacity:1;fill-rule:nonzero;stroke:none"
           id="text48"><tspan
             x="0"
             y="0"
             id="tspan46">h</tspan></text></g><path
         d="m 1850,130 h 400 l 920,640 h -400 z"
         style="fill:#cccccc;fill-opacity:1;fill-rule:nonzero;stroke:none"
         id="path50" /><path
         d="m 1850,130 h 400 l 920,640 h -400 z"
         style="fill:none;stroke:#ff0000;stroke-width:10;stroke-linecap:butt;stroke-linejoin:miter;stroke-miterlimit:1;stroke-dasharray:none;stroke-opacity:1"
         id="path52" /><path
         d="m 1850,130 h 400 l 200,640 h -400 z"
         style="fill:#cccccc;fill-opacity:1;fill-rule:nonzero;stroke:none"
         id="path54" /><path
         d="m 1850,130 h 400 l 200,640 h -400 z"
         style="fill:none;stroke:#ff0000;stroke-width:10;stroke-linecap:butt;stroke-linejoin:miter;stroke-miterlimit:1;stroke-dasharray:none;stroke-opacity:1"
         id="path56" /><path
         d="m 1850,130 v 0 h 920 v 640"
         style="fill:none;stroke:#000000;stroke-width:10;stroke-linecap:butt;stroke-linejoin:miter;stroke-miterlimit:1;stroke-dasharray:none;stroke-opacity:1"
         id="path58" /><path
         d="m 1850,125 h 363.74 l -8.66,-15 44.92,20 -44.92,20 8.66,-15 H 1850 v -10"
         style="fill:#000000;fill-opacity:1;fill-rule:nonzero;stroke:none"
         id="path60" /><path
         d="m 1852.86,125.895 890.23,619.293 1.46,-17.258 25.45,42.07 -48.3,-9.234 15.68,-7.368 -890.24,-619.293 5.72,-8.21"
         style="fill:#000000;fill-opacity:1;fill-rule:nonzero;stroke:none"
         id="path62" /><path
         d="m 1854.77,128.508 189.19,605.39 11.73,-12.738 -5.69,48.84 -32.49,-36.91 16.9,3.793 -189.18,-605.391 9.54,-2.984"
         style="fill:#000000;fill-opacity:1;fill-rule:nonzero;stroke:none"
         id="path64" /><g
         id="g66"
         transform="scale(10)"><text
           transform="matrix(1,0,0,-1,263.651,79.6219)"
           style="font-variant:normal;font-weight:normal;font-size:10.8px;font-family:CMBX12;-inkscape-font-specification:CMBX12;writing-mode:lr-tb;fill:#000000;fill-opacity:1;fill-rule:nonzero;stroke:none"
           id="text70"><tspan
             x="0"
             y="0"
             id="tspan68">v</tspan></text><text
           transform="matrix(1,0,0,-1,272.59866,79.6219)"
           style="font-variant:normal;font-weight:normal;font-size:10.8px;font-family:CMR12;-inkscape-font-specification:CMR12;writing-mode:lr-tb;fill:#000000;fill-opacity:1;fill-rule:nonzero;stroke:none"
           id="text74"><tspan
             x="0"
             y="0"
             id="tspan72">+</tspan></text><text
           transform="matrix(1,0,0,-1,283.18416,79.6219)"
           style="font-variant:normal;font-weight:normal;font-size:10.8px;font-family:CMMI12;-inkscape-font-specification:CMMI12;writing-mode:lr-tb;fill:#000000;fill-opacity:1;fill-rule:nonzero;stroke:none"
           id="text78"><tspan
             x="0"
             y="0"
             id="tspan76">k</tspan></text><text
           transform="matrix(1,0,0,-1,289.02439,79.6219)"
           style="font-variant:normal;font-weight:normal;font-size:10.8px;font-family:CMBX12;-inkscape-font-specification:CMBX12;writing-mode:lr-tb;fill:#000000;fill-opacity:1;fill-rule:nonzero;stroke:none"
           id="text86"><tspan
             x="0"
             y="0"
             id="tspan80">u</tspan><tspan
             x="-61.3242"
             y="75.003899"
             id="tspan82">u</tspan><tspan
             x="-94.912903"
             y="5.0128999"
             id="tspan84">v</tspan></text></g><path
         d="M 2050,770 V 130"
         style="fill:none;stroke:#000000;stroke-width:8;stroke-linecap:butt;stroke-linejoin:miter;stroke-miterlimit:1;stroke-dasharray:none;stroke-opacity:1"
         id="path88" /><path
         d="M 2050,770 V 130 m 0,70 h 70 v -70"
         style="fill:none;stroke:#000000;stroke-width:8;stroke-linecap:butt;stroke-linejoin:miter;stroke-miterlimit:1;stroke-dasharray:none;stroke-opacity:1"
         id="path90" /><path
         d="M 2050,770 V 130 m 720,70 h -70 v -70"
         style="fill:none;stroke:#000000;stroke-width:8;stroke-linecap:butt;stroke-linejoin:miter;stroke-miterlimit:1;stroke-dasharray:none;stroke-opacity:1"
         id="path92" /><g
         id="g94"
         transform="scale(10)"><text
           transform="matrix(1,0,0,-1,207.7,41.2641)"
           style="font-variant:normal;font-weight:normal;font-size:10.8px;font-family:CMMI12;-inkscape-font-specification:CMMI12;writing-mode:lr-tb;fill:#000000;fill-opacity:1;fill-rule:nonzero;stroke:none"
           id="text98"><tspan
             x="0 72.000038"
             y="0"
             sodipodi:role="line"
             id="tspan96">hh</tspan></text></g></g></g></svg>
