<?xml version="1.0" encoding="UTF-8" standalone="no"?>
<svg
   xmlns:dc="http://purl.org/dc/elements/1.1/"
   xmlns:cc="http://creativecommons.org/ns#"
   xmlns:rdf="http://www.w3.org/1999/02/22-rdf-syntax-ns#"
   xmlns:svg="http://www.w3.org/2000/svg"
   xmlns="http://www.w3.org/2000/svg"
   xmlns:sodipodi="http://sodipodi.sourceforge.net/DTD/sodipodi-0.dtd"
   xmlns:inkscape="http://www.inkscape.org/namespaces/inkscape"
   version="1.1"
   id="svg2"
   xml:space="preserve"
   width="592"
   height="137.33333"
   viewBox="0 0 592 137.33333"
   sodipodi:docname="5_b_Haar_1.eps"><metadata
     id="metadata8"><rdf:RDF><cc:Work
         rdf:about=""><dc:format>image/svg+xml</dc:format><dc:type
           rdf:resource="http://purl.org/dc/dcmitype/StillImage" /></cc:Work></rdf:RDF></metadata><defs
     id="defs6" /><sodipodi:namedview
     pagecolor="#ffffff"
     bordercolor="#666666"
     borderopacity="1"
     objecttolerance="10"
     gridtolerance="10"
     guidetolerance="10"
     inkscape:pageopacity="0"
     inkscape:pageshadow="2"
     inkscape:window-width="640"
     inkscape:window-height="480"
     id="namedview4" /><g
     id="g10"
     inkscape:groupmode="layer"
     inkscape:label="ink_ext_XXXXXX"
     transform="matrix(1.3333333,0,0,-1.3333333,0,137.33333)"><g
       id="g12"
       transform="scale(0.1)"><path
         d="M 200,150 V 950 M 500,150 V 950 M 800,150 V 950 M 1100,150 V 950 M 1400,150 V 950 M 200,150 H 1400 M 200,350 H 1400 M 200,550 H 1400 M 200,750 H 1400 M 200,950 h 1200"
         style="fill:none;stroke:#cccccc;stroke-width:10;stroke-linecap:butt;stroke-linejoin:miter;stroke-miterlimit:10;stroke-dasharray:none;stroke-opacity:1"
         id="path14" /><path
         d="M 200,150 H 1400 M 200,150 V 950"
         style="fill:none;stroke:#000000;stroke-width:10;stroke-linecap:butt;stroke-linejoin:miter;stroke-miterlimit:10;stroke-dasharray:none;stroke-opacity:1"
         id="path16" /><path
         d="m 200,150 h 1200 m -1200,0 v 800 m 0,-820 v 40"
         style="fill:none;stroke:#000000;stroke-width:10;stroke-linecap:butt;stroke-linejoin:miter;stroke-miterlimit:10;stroke-dasharray:none;stroke-opacity:1"
         id="path18" /><path
         d="M 200,150 H 1400 M 200,150 V 950 M 800,130 v 40"
         style="fill:none;stroke:#000000;stroke-width:10;stroke-linecap:butt;stroke-linejoin:miter;stroke-miterlimit:10;stroke-dasharray:none;stroke-opacity:1"
         id="path20" /><path
         d="M 200,150 H 1400 M 200,150 V 950 M 1400,130 v 40"
         style="fill:none;stroke:#000000;stroke-width:10;stroke-linecap:butt;stroke-linejoin:miter;stroke-miterlimit:10;stroke-dasharray:none;stroke-opacity:1"
         id="path22" /><path
         d="M 200,150 H 1400 M 200,150 V 950 M 180,150 h 40"
         style="fill:none;stroke:#000000;stroke-width:10;stroke-linecap:butt;stroke-linejoin:miter;stroke-miterlimit:10;stroke-dasharray:none;stroke-opacity:1"
         id="path24" /><path
         d="M 200,150 H 1400 M 200,150 V 950 M 180,550 h 40"
         style="fill:none;stroke:#000000;stroke-width:10;stroke-linecap:butt;stroke-linejoin:miter;stroke-miterlimit:10;stroke-dasharray:none;stroke-opacity:1"
         id="path26" /><path
         d="m 200,150 h 1200 m -1200,0 v 800 m -20,0 h 40"
         style="fill:none;stroke:#000000;stroke-width:10;stroke-linecap:butt;stroke-linejoin:miter;stroke-miterlimit:10;stroke-dasharray:none;stroke-opacity:1"
         id="path28" /><g
         id="g30"
         transform="scale(10)"><text
           transform="matrix(1,0,0,-1,73.6348,3.46875)"
           style="font-variant:normal;font-weight:normal;font-size:10px;font-family:CMSS10;-inkscape-font-specification:CMSS10;writing-mode:lr-tb;fill:#000000;fill-opacity:1;fill-rule:nonzero;stroke:none"
           id="text38"><tspan
             x="0 5 7.77 60.000401 65.000397 67.770401"
             y="0"
             sodipodi:role="line"
             id="tspan32">0.51.0</tspan><tspan
             x="-70.364799 -65.364799 -62.594799"
             y="-48.265598"
             sodipodi:role="line"
             id="tspan34">0.5</tspan><tspan
             x="-70.364799 -65.364799 -62.594799"
             y="-88.265602"
             sodipodi:role="line"
             id="tspan36">1.0</tspan></text></g><path
         d="M 200,950 H 1400"
         style="fill:none;stroke:#0000ff;stroke-width:20;stroke-linecap:butt;stroke-linejoin:miter;stroke-miterlimit:10;stroke-dasharray:none;stroke-opacity:1"
         id="path40" /><path
         d="M 1680,150 V 950 M 1980,150 V 950 M 2280,150 V 950 M 2580,150 V 950 M 2880,150 V 950 M 1680,150 H 2880 M 1680,350 H 2880 M 1680,550 H 2880 M 1680,750 H 2880 M 1680,950 h 1200"
         style="fill:none;stroke:#cccccc;stroke-width:10;stroke-linecap:butt;stroke-linejoin:miter;stroke-miterlimit:10;stroke-dasharray:none;stroke-opacity:1"
         id="path42" /><path
         d="m 1680,150 h 1200 m -1200,0 v 800"
         style="fill:none;stroke:#000000;stroke-width:10;stroke-linecap:butt;stroke-linejoin:miter;stroke-miterlimit:10;stroke-dasharray:none;stroke-opacity:1"
         id="path44" /><path
         d="m 1680,150 h 1200 m -1200,0 v 800 m 0,-820 v 40"
         style="fill:none;stroke:#000000;stroke-width:10;stroke-linecap:butt;stroke-linejoin:miter;stroke-miterlimit:10;stroke-dasharray:none;stroke-opacity:1"
         id="path46" /><path
         d="m 1680,150 h 1200 m -1200,0 v 800 m 600,-820 v 40"
         style="fill:none;stroke:#000000;stroke-width:10;stroke-linecap:butt;stroke-linejoin:miter;stroke-miterlimit:10;stroke-dasharray:none;stroke-opacity:1"
         id="path48" /><path
         d="m 1680,150 h 1200 m -1200,0 V 950 M 2880,130 v 40"
         style="fill:none;stroke:#000000;stroke-width:10;stroke-linecap:butt;stroke-linejoin:miter;stroke-miterlimit:10;stroke-dasharray:none;stroke-opacity:1"
         id="path50" /><path
         d="m 1680,150 h 1200 m -1200,0 v 800 m -20,-800 h 40"
         style="fill:none;stroke:#000000;stroke-width:10;stroke-linecap:butt;stroke-linejoin:miter;stroke-miterlimit:10;stroke-dasharray:none;stroke-opacity:1"
         id="path52" /><path
         d="m 1680,150 h 1200 m -1200,0 v 800 m -20,-400 h 40"
         style="fill:none;stroke:#000000;stroke-width:10;stroke-linecap:butt;stroke-linejoin:miter;stroke-miterlimit:10;stroke-dasharray:none;stroke-opacity:1"
         id="path54" /><path
         d="m 1680,150 h 1200 m -1200,0 v 800 m -20,0 h 40"
         style="fill:none;stroke:#000000;stroke-width:10;stroke-linecap:butt;stroke-linejoin:miter;stroke-miterlimit:10;stroke-dasharray:none;stroke-opacity:1"
         id="path56" /><g
         id="g58"
         transform="scale(10)"><text
           transform="matrix(1,0,0,-1,221.635,3.46875)"
           style="font-variant:normal;font-weight:normal;font-size:10px;font-family:CMSS10;-inkscape-font-specification:CMSS10;writing-mode:lr-tb;fill:#000000;fill-opacity:1;fill-rule:nonzero;stroke:none"
           id="text66"><tspan
             x="0 5 7.77 60 65 67.769997"
             y="0"
             sodipodi:role="line"
             id="tspan60">0.51.0</tspan><tspan
             x="-70.365196 -65.365196 -62.5952"
             y="-48.265598"
             sodipodi:role="line"
             id="tspan62">0.5</tspan><tspan
             x="-70.365196 -65.365196 -62.5952"
             y="-88.265602"
             sodipodi:role="line"
             id="tspan64">1.0</tspan></text></g><path
         d="m 1680,950 h 600 m 0,-800 h 600"
         style="fill:none;stroke:#0000ff;stroke-width:20;stroke-linecap:butt;stroke-linejoin:miter;stroke-miterlimit:10;stroke-dasharray:none;stroke-opacity:1"
         id="path68" /><path
         d="M 3160,150 V 950 M 3460,150 V 950 M 3760,150 V 950 M 4060,150 V 950 M 4360,150 V 950 M 3160,150 H 4360 M 3160,350 H 4360 M 3160,550 H 4360 M 3160,750 H 4360 M 3160,950 h 1200"
         style="fill:none;stroke:#cccccc;stroke-width:10;stroke-linecap:butt;stroke-linejoin:miter;stroke-miterlimit:10;stroke-dasharray:none;stroke-opacity:1"
         id="path70" /><path
         d="m 3160,150 h 1200 m -1200,0 v 800"
         style="fill:none;stroke:#000000;stroke-width:10;stroke-linecap:butt;stroke-linejoin:miter;stroke-miterlimit:10;stroke-dasharray:none;stroke-opacity:1"
         id="path72" /><path
         d="m 3160,150 h 1200 m -1200,0 v 800 m 0,-820 v 40"
         style="fill:none;stroke:#000000;stroke-width:10;stroke-linecap:butt;stroke-linejoin:miter;stroke-miterlimit:10;stroke-dasharray:none;stroke-opacity:1"
         id="path74" /><path
         d="m 3160,150 h 1200 m -1200,0 v 800 m 600,-820 v 40"
         style="fill:none;stroke:#000000;stroke-width:10;stroke-linecap:butt;stroke-linejoin:miter;stroke-miterlimit:10;stroke-dasharray:none;stroke-opacity:1"
         id="path76" /><path
         d="m 3160,150 h 1200 m -1200,0 V 950 M 4360,130 v 40"
         style="fill:none;stroke:#000000;stroke-width:10;stroke-linecap:butt;stroke-linejoin:miter;stroke-miterlimit:10;stroke-dasharray:none;stroke-opacity:1"
         id="path78" /><path
         d="m 3160,150 h 1200 m -1200,0 v 800 m -20,-800 h 40"
         style="fill:none;stroke:#000000;stroke-width:10;stroke-linecap:butt;stroke-linejoin:miter;stroke-miterlimit:10;stroke-dasharray:none;stroke-opacity:1"
         id="path80" /><path
         d="m 3160,150 h 1200 m -1200,0 v 800 m -20,-400 h 40"
         style="fill:none;stroke:#000000;stroke-width:10;stroke-linecap:butt;stroke-linejoin:miter;stroke-miterlimit:10;stroke-dasharray:none;stroke-opacity:1"
         id="path82" /><path
         d="m 3160,150 h 1200 m -1200,0 v 800 m -20,0 h 40"
         style="fill:none;stroke:#000000;stroke-width:10;stroke-linecap:butt;stroke-linejoin:miter;stroke-miterlimit:10;stroke-dasharray:none;stroke-opacity:1"
         id="path84" /><g
         id="g86"
         transform="scale(10)"><text
           transform="matrix(1,0,0,-1,369.635,3.46875)"
           style="font-variant:normal;font-weight:normal;font-size:10px;font-family:CMSS10;-inkscape-font-specification:CMSS10;writing-mode:lr-tb;fill:#000000;fill-opacity:1;fill-rule:nonzero;stroke:none"
           id="text94"><tspan
             x="0 5 7.77 60 65 67.769997"
             y="0"
             sodipodi:role="line"
             id="tspan88">0.51.0</tspan><tspan
             x="-70.365196 -65.365196 -62.5952"
             y="-48.265598"
             sodipodi:role="line"
             id="tspan90">0.5</tspan><tspan
             x="-70.365196 -65.365196 -62.5952"
             y="-88.265602"
             sodipodi:role="line"
             id="tspan92">1.0</tspan></text></g><path
         d="m 3160,150 h 600 m 0,800 h 600"
         style="fill:none;stroke:#0000ff;stroke-width:20;stroke-linecap:butt;stroke-linejoin:miter;stroke-miterlimit:10;stroke-dasharray:none;stroke-opacity:1"
         id="path96" /></g></g></svg>
