<?xml version="1.0" encoding="UTF-8" standalone="no"?>
<svg
   xmlns:dc="http://purl.org/dc/elements/1.1/"
   xmlns:cc="http://creativecommons.org/ns#"
   xmlns:rdf="http://www.w3.org/1999/02/22-rdf-syntax-ns#"
   xmlns:svg="http://www.w3.org/2000/svg"
   xmlns="http://www.w3.org/2000/svg"
   xmlns:sodipodi="http://sodipodi.sourceforge.net/DTD/sodipodi-0.dtd"
   xmlns:inkscape="http://www.inkscape.org/namespaces/inkscape"
   version="1.1"
   id="svg2"
   xml:space="preserve"
   width="173.33333"
   height="173.33333"
   viewBox="0 0 173.33333 173.33333"
   sodipodi:docname="6_a_distance_line.eps"><metadata
     id="metadata8"><rdf:RDF><cc:Work
         rdf:about=""><dc:format>image/svg+xml</dc:format><dc:type
           rdf:resource="http://purl.org/dc/dcmitype/StillImage" /></cc:Work></rdf:RDF></metadata><defs
     id="defs6"><clipPath
       clipPathUnits="userSpaceOnUse"
       id="clipPath20"><path
         d="M 50,50 H 1250 V 1250 H 50 Z"
         id="path18" /></clipPath></defs><sodipodi:namedview
     pagecolor="#ffffff"
     bordercolor="#666666"
     borderopacity="1"
     objecttolerance="10"
     gridtolerance="10"
     guidetolerance="10"
     inkscape:pageopacity="0"
     inkscape:pageshadow="2"
     inkscape:window-width="640"
     inkscape:window-height="480"
     id="namedview4" /><g
     id="g10"
     inkscape:groupmode="layer"
     inkscape:label="ink_ext_XXXXXX"
     transform="matrix(1.3333333,0,0,-1.3333333,0,173.33333)"><g
       id="g12"
       transform="scale(0.1)"><g
         id="g14"><g
           id="g16"
           clip-path="url(#clipPath20)"><path
             d="M -559.48,-366.965 2183.18,1509.38"
             style="fill:none;stroke:#000000;stroke-width:10;stroke-linecap:butt;stroke-linejoin:miter;stroke-miterlimit:10;stroke-dasharray:none;stroke-opacity:1"
             id="path22" /><path
             d="m 493.227,1029.42 -136.364,-727.065 -15.777,13.532 13.652,-57.403 33.528,48.555 -19.61,-6.894 136.364,727.065 -11.793,2.21"
             style="fill:#0000ff;fill-opacity:1;fill-rule:nonzero;stroke:none"
             id="path24" /><path
             d="m 494.172,1024.93 600.878,-878.305 -20.72,-1.586 50.24,-30.941 -10.62,58.043 -8.99,-18.743 -600.886,878.312 -9.902,-6.78"
             style="fill:#0000ff;fill-opacity:1;fill-rule:nonzero;stroke:none"
             id="path26" /><path
             d="m 494.172,1024.93 288.156,-421.196 -20.726,-1.586 50.246,-30.941 -10.629,58.043 -8.989,-18.742 -288.156,421.202 -9.902,-6.78"
             style="fill:#ff00ff;fill-opacity:1;fill-rule:nonzero;stroke:none"
             id="path28" /><path
             d="m 374.738,258.484 c 0,11.043 -8.953,20 -20,20 v 0 c -11.043,0 -20,-8.957 -20,-20 v 0 c 0,-11.046 8.957,-20 20,-20 v 0 c 11.047,0 20,8.954 20,20"
             style="fill:#000000;fill-opacity:1;fill-rule:nonzero;stroke:none"
             id="path30" /><path
             d="m 519.125,1028.32 c 0,11.04 -8.957,20 -20,20 v 0 c -11.047,0 -20,-8.96 -20,-20 v 0 c 0,-11.05 8.953,-20 20,-20 v 0 c 11.043,0 20,8.95 20,20"
             style="fill:#000000;fill-opacity:1;fill-rule:nonzero;stroke:none"
             id="path32" /><g
             id="g34"
             transform="scale(10)"><text
               transform="matrix(1,0,0,-1,115.157,5.72773)"
               style="font-variant:normal;font-weight:normal;font-size:10.8px;font-family:CMBX12;-inkscape-font-specification:CMBX12;writing-mode:lr-tb;fill:#000000;fill-opacity:1;fill-rule:nonzero;stroke:none"
               id="text40"><tspan
                 x="0"
                 y="0"
                 id="tspan36">n</tspan><tspan
                 x="-81.552696"
                 y="-56.2211"
                 id="tspan38">v</tspan></text><text
               transform="matrix(1,0,0,-1,68.248,80.37583)"
               style="font-variant:normal;font-weight:normal;font-size:10.8px;font-family:CMR12;-inkscape-font-specification:CMR12;writing-mode:lr-tb;fill:#000000;fill-opacity:1;fill-rule:nonzero;stroke:none"
               id="text44"><tspan
                 x="0 5.8643999 9.9684 15.803128"
                 y="0"
                 sodipodi:role="line"
                 id="tspan42">proj</tspan></text><text
               transform="matrix(1,0,0,-1,87.2703,77.8356)"
               style="font-variant:normal;font-weight:normal;font-size:7.2px;font-family:CMBX8;-inkscape-font-specification:CMBX8;writing-mode:lr-tb;fill:#000000;fill-opacity:1;fill-rule:nonzero;stroke:none"
               id="text48"><tspan
                 x="0"
                 y="0"
                 id="tspan46">n</tspan></text><text
               transform="matrix(1,0,0,-1,92.60038,80.37583)"
               style="font-variant:normal;font-weight:normal;font-size:10.8px;font-family:CMBX12;-inkscape-font-specification:CMBX12;writing-mode:lr-tb;fill:#000000;fill-opacity:1;fill-rule:nonzero;stroke:none"
               id="text52"><tspan
                 x="0"
                 y="0"
                 id="tspan50">v</tspan></text><text
               transform="matrix(1,0,0,-1,38.17338,20.45863)"
               style="font-variant:normal;font-weight:normal;font-size:10.8px;font-family:CMMI12;-inkscape-font-specification:CMMI12;writing-mode:lr-tb;fill:#000000;fill-opacity:1;fill-rule:nonzero;stroke:none"
               id="text56"><tspan
                 x="0"
                 y="0"
                 id="tspan54">Q</tspan></text><text
               transform="matrix(1,0,0,-1,49.50618,20.45863)"
               style="font-variant:normal;font-weight:normal;font-size:10.8px;font-family:CMR12;-inkscape-font-specification:CMR12;writing-mode:lr-tb;fill:#000000;fill-opacity:1;fill-rule:nonzero;stroke:none"
               id="text60"><tspan
                 x="0 11.183206"
                 y="0"
                 sodipodi:role="line"
                 id="tspan58">=(</tspan></text><text
               transform="matrix(1,0,0,-1,64.78628,20.45863)"
               style="font-variant:normal;font-weight:normal;font-size:10.8px;font-family:CMMI12;-inkscape-font-specification:CMMI12;writing-mode:lr-tb;fill:#000000;fill-opacity:1;fill-rule:nonzero;stroke:none"
               id="text64"><tspan
                 x="0"
                 y="0"
                 id="tspan62">x</tspan></text><text
               transform="matrix(1,0,0,-1,70.77339,18.84457)"
               style="font-variant:normal;font-weight:normal;font-size:7.2px;font-family:CMR8;-inkscape-font-specification:CMR8;writing-mode:lr-tb;fill:#000000;fill-opacity:1;fill-rule:nonzero;stroke:none"
               id="text68"><tspan
                 x="0"
                 y="0"
                 id="tspan66">1</tspan></text><text
               transform="matrix(1,0,0,-1,75.03237,20.45863)"
               style="font-variant:normal;font-weight:normal;font-size:10.8px;font-family:CMMI12;-inkscape-font-specification:CMMI12;writing-mode:lr-tb;fill:#000000;fill-opacity:1;fill-rule:nonzero;stroke:none"
               id="text72"><tspan
                 x="0 4.7195354"
                 y="0"
                 sodipodi:role="line"
                 id="tspan70">,y</tspan></text><text
               transform="matrix(1,0,0,-1,84.88901,18.84457)"
               style="font-variant:normal;font-weight:normal;font-size:7.2px;font-family:CMR8;-inkscape-font-specification:CMR8;writing-mode:lr-tb;fill:#000000;fill-opacity:1;fill-rule:nonzero;stroke:none"
               id="text76"><tspan
                 x="0"
                 y="0"
                 id="tspan74">1</tspan></text><text
               transform="matrix(1,0,0,-1,89.14799,20.45863)"
               style="font-variant:normal;font-weight:normal;font-size:10.8px;font-family:CMR12;-inkscape-font-specification:CMR12;writing-mode:lr-tb;fill:#000000;fill-opacity:1;fill-rule:nonzero;stroke:none"
               id="text80"><tspan
                 x="0"
                 y="0"
                 id="tspan78">)</tspan></text><text
               transform="matrix(1,0,0,-1,22.42099,108.22193)"
               style="font-variant:normal;font-weight:normal;font-size:10.8px;font-family:CMMI12;-inkscape-font-specification:CMMI12;writing-mode:lr-tb;fill:#000000;fill-opacity:1;fill-rule:nonzero;stroke:none"
               id="text84"><tspan
                 x="0"
                 y="0"
                 id="tspan82">P</tspan></text><text
               transform="matrix(1,0,0,-1,33.66399,108.22193)"
               style="font-variant:normal;font-weight:normal;font-size:10.8px;font-family:CMR12;-inkscape-font-specification:CMR12;writing-mode:lr-tb;fill:#000000;fill-opacity:1;fill-rule:nonzero;stroke:none"
               id="text88"><tspan
                 x="0 11.182817"
                 y="0"
                 sodipodi:role="line"
                 id="tspan86">=(</tspan></text><text
               transform="matrix(1,0,0,-1,48.94369,108.22193)"
               style="font-variant:normal;font-weight:normal;font-size:10.8px;font-family:CMMI12;-inkscape-font-specification:CMMI12;writing-mode:lr-tb;fill:#000000;fill-opacity:1;fill-rule:nonzero;stroke:none"
               id="text92"><tspan
                 x="0"
                 y="0"
                 id="tspan90">x</tspan></text><text
               transform="matrix(1,0,0,-1,54.9308,106.60787)"
               style="font-variant:normal;font-weight:normal;font-size:7.2px;font-family:CMR8;-inkscape-font-specification:CMR8;writing-mode:lr-tb;fill:#000000;fill-opacity:1;fill-rule:nonzero;stroke:none"
               id="text96"><tspan
                 x="0"
                 y="0"
                 id="tspan94">0</tspan></text><text
               transform="matrix(1,0,0,-1,59.18978,108.22193)"
               style="font-variant:normal;font-weight:normal;font-size:10.8px;font-family:CMMI12;-inkscape-font-specification:CMMI12;writing-mode:lr-tb;fill:#000000;fill-opacity:1;fill-rule:nonzero;stroke:none"
               id="text100"><tspan
                 x="0 4.719924"
                 y="0"
                 sodipodi:role="line"
                 id="tspan98">,y</tspan></text><text
               transform="matrix(1,0,0,-1,69.04642,106.60787)"
               style="font-variant:normal;font-weight:normal;font-size:7.2px;font-family:CMR8;-inkscape-font-specification:CMR8;writing-mode:lr-tb;fill:#000000;fill-opacity:1;fill-rule:nonzero;stroke:none"
               id="text104"><tspan
                 x="0"
                 y="0"
                 id="tspan102">0</tspan></text><text
               transform="matrix(1,0,0,-1,73.3054,108.22193)"
               style="font-variant:normal;font-weight:normal;font-size:10.8px;font-family:CMR12;-inkscape-font-specification:CMR12;writing-mode:lr-tb;fill:#000000;fill-opacity:1;fill-rule:nonzero;stroke:none"
               id="text108"><tspan
                 x="0"
                 y="0"
                 id="tspan106">)</tspan></text><text
               transform="matrix(1,0,0,-1,114.3585,71.53323)"
               style="font-variant:normal;font-weight:normal;font-size:10.8px;font-family:CMMI12;-inkscape-font-specification:CMMI12;writing-mode:lr-tb;fill:#000000;fill-opacity:1;fill-rule:nonzero;stroke:none"
               id="text112"><tspan
                 x="0"
                 y="0"
                 id="tspan110">l</tspan></text></g></g></g></g></g></svg>
