<?xml version="1.0" encoding="UTF-8" standalone="no"?>
<svg
   xmlns:dc="http://purl.org/dc/elements/1.1/"
   xmlns:cc="http://creativecommons.org/ns#"
   xmlns:rdf="http://www.w3.org/1999/02/22-rdf-syntax-ns#"
   xmlns:svg="http://www.w3.org/2000/svg"
   xmlns="http://www.w3.org/2000/svg"
   xmlns:sodipodi="http://sodipodi.sourceforge.net/DTD/sodipodi-0.dtd"
   xmlns:inkscape="http://www.inkscape.org/namespaces/inkscape"
   version="1.1"
   id="svg2"
   xml:space="preserve"
   width="213.33333"
   height="213.33333"
   viewBox="0 0 213.33333 213.33333"
   sodipodi:docname="7_c_Mat_norm_b.eps"><metadata
     id="metadata8"><rdf:RDF><cc:Work
         rdf:about=""><dc:format>image/svg+xml</dc:format><dc:type
           rdf:resource="http://purl.org/dc/dcmitype/StillImage" /></cc:Work></rdf:RDF></metadata><defs
     id="defs6" /><sodipodi:namedview
     pagecolor="#ffffff"
     bordercolor="#666666"
     borderopacity="1"
     objecttolerance="10"
     gridtolerance="10"
     guidetolerance="10"
     inkscape:pageopacity="0"
     inkscape:pageshadow="2"
     inkscape:window-width="640"
     inkscape:window-height="480"
     id="namedview4" /><g
     id="g10"
     inkscape:groupmode="layer"
     inkscape:label="ink_ext_XXXXXX"
     transform="matrix(1.3333333,0,0,-1.3333333,0,213.33333)"><g
       id="g12"
       transform="scale(0.1)"><path
         d="M 50,800 H 1550 M 800,50 v 1500"
         style="fill:none;stroke:#000000;stroke-width:10;stroke-linecap:butt;stroke-linejoin:miter;stroke-miterlimit:10;stroke-dasharray:none;stroke-opacity:1"
         id="path14" /><path
         d="M 50,800 H 1550 M 800,50 V 1550 M 50,780 v 40"
         style="fill:none;stroke:#000000;stroke-width:10;stroke-linecap:butt;stroke-linejoin:miter;stroke-miterlimit:10;stroke-dasharray:none;stroke-opacity:1"
         id="path16" /><path
         d="M 50,800 H 1550 M 800,50 V 1550 M 300,780 v 40"
         style="fill:none;stroke:#000000;stroke-width:10;stroke-linecap:butt;stroke-linejoin:miter;stroke-miterlimit:10;stroke-dasharray:none;stroke-opacity:1"
         id="path18" /><path
         d="M 50,800 H 1550 M 800,50 V 1550 M 550,780 v 40"
         style="fill:none;stroke:#000000;stroke-width:10;stroke-linecap:butt;stroke-linejoin:miter;stroke-miterlimit:10;stroke-dasharray:none;stroke-opacity:1"
         id="path20" /><path
         d="M 50,800 H 1550 M 800,50 v 1500 m 0,-770 v 40"
         style="fill:none;stroke:#000000;stroke-width:10;stroke-linecap:butt;stroke-linejoin:miter;stroke-miterlimit:10;stroke-dasharray:none;stroke-opacity:1"
         id="path22" /><path
         d="M 50,800 H 1550 M 800,50 v 1500 m 250,-770 v 40"
         style="fill:none;stroke:#000000;stroke-width:10;stroke-linecap:butt;stroke-linejoin:miter;stroke-miterlimit:10;stroke-dasharray:none;stroke-opacity:1"
         id="path24" /><path
         d="M 50,800 H 1550 M 800,50 v 1500 m 500,-770 v 40"
         style="fill:none;stroke:#000000;stroke-width:10;stroke-linecap:butt;stroke-linejoin:miter;stroke-miterlimit:10;stroke-dasharray:none;stroke-opacity:1"
         id="path26" /><path
         d="M 50,800 H 1550 M 800,50 v 1500 m 750,-770 v 40"
         style="fill:none;stroke:#000000;stroke-width:10;stroke-linecap:butt;stroke-linejoin:miter;stroke-miterlimit:10;stroke-dasharray:none;stroke-opacity:1"
         id="path28" /><path
         d="M 50,800 H 1550 M 800,50 V 1550 M 780,50 h 40"
         style="fill:none;stroke:#000000;stroke-width:10;stroke-linecap:butt;stroke-linejoin:miter;stroke-miterlimit:10;stroke-dasharray:none;stroke-opacity:1"
         id="path30" /><path
         d="M 50,800 H 1550 M 800,50 V 1550 M 780,300 h 40"
         style="fill:none;stroke:#000000;stroke-width:10;stroke-linecap:butt;stroke-linejoin:miter;stroke-miterlimit:10;stroke-dasharray:none;stroke-opacity:1"
         id="path32" /><path
         d="M 50,800 H 1550 M 800,50 V 1550 M 780,550 h 40"
         style="fill:none;stroke:#000000;stroke-width:10;stroke-linecap:butt;stroke-linejoin:miter;stroke-miterlimit:10;stroke-dasharray:none;stroke-opacity:1"
         id="path34" /><path
         d="M 50,800 H 1550 M 800,50 V 1550 M 780,800 h 40"
         style="fill:none;stroke:#000000;stroke-width:10;stroke-linecap:butt;stroke-linejoin:miter;stroke-miterlimit:10;stroke-dasharray:none;stroke-opacity:1"
         id="path36" /><path
         d="M 50,800 H 1550 M 800,50 v 1500 m -20,-500 h 40"
         style="fill:none;stroke:#000000;stroke-width:10;stroke-linecap:butt;stroke-linejoin:miter;stroke-miterlimit:10;stroke-dasharray:none;stroke-opacity:1"
         id="path38" /><path
         d="M 50,800 H 1550 M 800,50 v 1500 m -20,-250 h 40"
         style="fill:none;stroke:#000000;stroke-width:10;stroke-linecap:butt;stroke-linejoin:miter;stroke-miterlimit:10;stroke-dasharray:none;stroke-opacity:1"
         id="path40" /><path
         d="M 50,800 H 1550 M 800,50 v 1500 m -20,0 h 40"
         style="fill:none;stroke:#000000;stroke-width:10;stroke-linecap:butt;stroke-linejoin:miter;stroke-miterlimit:10;stroke-dasharray:none;stroke-opacity:1"
         id="path42" /><g
         id="g44"
         transform="scale(10)"><text
           transform="matrix(1,0,0,-1,0.848828,68.4688)"
           style="font-variant:normal;font-weight:normal;font-size:10px;font-family:CMSS10;-inkscape-font-specification:CMSS10;writing-mode:lr-tb;fill:#000000;fill-opacity:1;fill-rule:nonzero;stroke:none"
           id="text60"><tspan
             x="0 3.3299999 25 28.33 50 53.330002 101.6605 126.6605 151.66051"
             y="0"
             sodipodi:role="line"
             id="tspan46">-6-4-2246</tspan><tspan
             x="66.848801 70.178802"
             y="66.734398"
             sodipodi:role="line"
             id="tspan48">-6</tspan><tspan
             x="66.848801 70.178802"
             y="41.734402"
             sodipodi:role="line"
             id="tspan50">-4</tspan><tspan
             x="66.848801 70.178802"
             y="16.7344"
             sodipodi:role="line"
             id="tspan52">-2</tspan><tspan
             x="70.169891"
             y="-33.265598"
             id="tspan54">2</tspan><tspan
             x="70.169891"
             y="-58.265598"
             id="tspan56">4</tspan><tspan
             x="70.169891"
             y="-83.265602"
             id="tspan58">6</tspan></text></g><path
         d="m 805.691,798.102 209.849,629.538 13.79,-15.55 -5.72,58.73 -39.817,-43.55 20.367,4.17 -209.851,-629.542 11.382,-3.796"
         style="fill:#000000;fill-opacity:1;fill-rule:nonzero;stroke:none"
         id="path62" /><path
         d="m 801.898,805.691 -126.425,42.141 15.55,13.793 -58.73,-5.723 43.551,-39.816 -4.168,20.363 126.426,-42.14 3.796,11.382"
         style="fill:#000000;fill-opacity:1;fill-rule:nonzero;stroke:none"
         id="path64" /><g
         id="g66"
         transform="scale(10)"><text
           transform="matrix(1,0,0,-1,105.061,150.236)"
           style="font-variant:normal;font-size:9px;font-family:'Nimbus Roman';-inkscape-font-specification:NimbusRomNo9L-ReguItal;writing-mode:lr-tb;fill:#000000;fill-opacity:1;fill-rule:nonzero;stroke:none"
           id="text70"><tspan
             x="0"
             y="0"
             id="tspan68">A</tspan></text><text
           transform="matrix(1,0,0,-1,110.53952,150.236)"
           style="font-variant:normal;font-size:9px;font-family:'Nimbus Roman';-inkscape-font-specification:NimbusRomNo9L-Medi;writing-mode:lr-tb;fill:#000000;fill-opacity:1;fill-rule:nonzero;stroke:none"
           id="text74"><tspan
             x="0"
             y="0"
             id="tspan72">u</tspan></text><text
           transform="matrix(1,0,0,-1,115.52468,148.8817)"
           style="font-variant:normal;font-size:6.65999px;font-family:'Nimbus Roman';-inkscape-font-specification:NimbusRomNo9L-Regu;writing-mode:lr-tb;fill:#000000;fill-opacity:1;fill-rule:nonzero;stroke:none"
           id="text78"><tspan
             x="0"
             y="0"
             id="tspan76">1</tspan></text><text
           transform="matrix(1,0,0,-1,47.06178,88.7442)"
           style="font-variant:normal;font-size:9px;font-family:'Nimbus Roman';-inkscape-font-specification:NimbusRomNo9L-ReguItal;writing-mode:lr-tb;fill:#000000;fill-opacity:1;fill-rule:nonzero;stroke:none"
           id="text82"><tspan
             x="0"
             y="0"
             id="tspan80">A</tspan></text><text
           transform="matrix(1,0,0,-1,52.53991,88.7442)"
           style="font-variant:normal;font-size:9px;font-family:'Nimbus Roman';-inkscape-font-specification:NimbusRomNo9L-Medi;writing-mode:lr-tb;fill:#000000;fill-opacity:1;fill-rule:nonzero;stroke:none"
           id="text86"><tspan
             x="0"
             y="0"
             id="tspan84">u</tspan></text><text
           transform="matrix(1,0,0,-1,57.52546,87.3899)"
           style="font-variant:normal;font-size:6.65999px;font-family:'Nimbus Roman';-inkscape-font-specification:NimbusRomNo9L-Regu;writing-mode:lr-tb;fill:#000000;fill-opacity:1;fill-rule:nonzero;stroke:none"
           id="text90"><tspan
             x="0"
             y="0"
             id="tspan88">2</tspan></text></g><path
         d="m 1050,1050 7.36,38.75 6.34,37.61 5.29,36.32 4.24,34.9 3.16,33.32 2.07,31.62 0.97,29.8 -0.13,27.85 -1.24,25.8 -2.33,23.65 -3.43,21.4 -4.49,19.07 -5.55,16.65 -6.59,14.19 -7.6,11.65 -8.57,9.08 -9.52,6.47 -10.43,3.83 -11.3,1.18 -12.113,-1.48 -12.891,-4.12 -13.613,-6.77 -14.285,-9.36 -14.899,-11.95 L 925,1425 l -15.945,-16.93 -16.375,-19.33 -16.739,-21.65 -17.039,-23.9 -17.273,-26.03 -17.438,-28.08 -17.531,-30.01 -17.558,-31.82 -17.516,-33.5 -17.406,-35.06 -17.223,-36.48 -16.973,-37.74 -16.656,-38.87 -16.277,-39.84 L 671.219,965.113 655.895,923.809 641.141,882.02 627.016,839.906 613.57,797.633 600.863,755.371 588.941,713.285 577.852,671.543 567.637,630.305 558.344,589.738 550,550 l -7.355,-38.75 -6.34,-37.613 -5.301,-36.321 -4.234,-34.894 -3.161,-33.32 -2.07,-31.625 -0.969,-29.797 0.133,-27.852 1.238,-25.801 2.332,-23.648 3.422,-21.399 4.496,-19.066 5.551,-16.656 6.586,-14.184 7.598,-11.656 8.578,-9.078 9.519,-6.469 10.43,-3.832 11.293,-1.18 12.117,1.477 12.891,4.129 13.613,6.762 14.285,9.367 14.899,11.941 L 675,175 l 15.945,16.93 16.375,19.332 16.739,21.652 17.043,23.895 17.269,26.035 17.438,28.078 17.531,30.008 17.558,31.816 17.516,33.504 17.406,35.063 17.223,36.472 16.973,37.746 16.66,38.867 16.273,39.84 15.832,40.649 15.324,41.304 14.754,41.789 14.125,42.114 13.446,42.273 12.707,42.262 11.923,42.086 11.09,41.742 10.21,41.238 9.3,40.565 z"
         style="fill:none;stroke:#ff0000;stroke-width:10;stroke-linecap:butt;stroke-linejoin:miter;stroke-miterlimit:10;stroke-dasharray:none;stroke-opacity:1"
         id="path92" /></g></g></svg>
