<?xml version="1.0" encoding="UTF-8" standalone="no"?>
<svg
   xmlns:dc="http://purl.org/dc/elements/1.1/"
   xmlns:cc="http://creativecommons.org/ns#"
   xmlns:rdf="http://www.w3.org/1999/02/22-rdf-syntax-ns#"
   xmlns:svg="http://www.w3.org/2000/svg"
   xmlns="http://www.w3.org/2000/svg"
   xmlns:sodipodi="http://sodipodi.sourceforge.net/DTD/sodipodi-0.dtd"
   xmlns:inkscape="http://www.inkscape.org/namespaces/inkscape"
   version="1.1"
   id="svg2"
   xml:space="preserve"
   width="216"
   height="213.33333"
   viewBox="0 0 216 213.33333"
   sodipodi:docname="7_d_Ex2_D_circles.eps"><metadata
     id="metadata8"><rdf:RDF><cc:Work
         rdf:about=""><dc:format>image/svg+xml</dc:format><dc:type
           rdf:resource="http://purl.org/dc/dcmitype/StillImage" /></cc:Work></rdf:RDF></metadata><defs
     id="defs6" /><sodipodi:namedview
     pagecolor="#ffffff"
     bordercolor="#666666"
     borderopacity="1"
     objecttolerance="10"
     gridtolerance="10"
     guidetolerance="10"
     inkscape:pageopacity="0"
     inkscape:pageshadow="2"
     inkscape:window-width="640"
     inkscape:window-height="480"
     id="namedview4" /><g
     id="g10"
     inkscape:groupmode="layer"
     inkscape:label="ink_ext_XXXXXX"
     transform="matrix(1.3333333,0,0,-1.3333333,0,213.33333)"><g
       id="g12"
       transform="scale(0.1)"><path
         d="M 70,50 V 1550 M 206.363,50 V 1550 M 342.727,50 V 1550 M 479.09,50 V 1550 M 615.453,50 V 1550 M 751.816,50 V 1550 M 888.184,50 V 1550 M 1024.55,50 V 1550 M 1160.91,50 V 1550 M 1297.27,50 V 1550 M 1433.64,50 V 1550 M 1570,50 V 1550 M 70,50 H 1570 M 70,186.363 H 1570 M 70,322.727 H 1570 M 70,459.09 H 1570 M 70,595.453 H 1570 M 70,731.816 H 1570 M 70,868.184 H 1570 M 70,1004.55 H 1570 M 70,1140.91 H 1570 M 70,1277.27 H 1570 M 70,1413.64 H 1570 M 70,1550 h 1500"
         style="fill:none;stroke:#cccccc;stroke-width:10;stroke-linecap:butt;stroke-linejoin:miter;stroke-miterlimit:10;stroke-dasharray:none;stroke-opacity:1"
         id="path14" /><path
         d="M 70,595.453 H 1570 M 615.453,50 v 1500"
         style="fill:none;stroke:#000000;stroke-width:10;stroke-linecap:butt;stroke-linejoin:miter;stroke-miterlimit:10;stroke-dasharray:none;stroke-opacity:1"
         id="path16" /><path
         d="M 70,595.453 H 1570 M 615.453,50 V 1550 M 70,575.453 v 40"
         style="fill:none;stroke:#000000;stroke-width:10;stroke-linecap:butt;stroke-linejoin:miter;stroke-miterlimit:10;stroke-dasharray:none;stroke-opacity:1"
         id="path18" /><path
         d="M 70,595.453 H 1570 M 615.453,50 V 1550 M 206.363,575.453 v 40"
         style="fill:none;stroke:#000000;stroke-width:10;stroke-linecap:butt;stroke-linejoin:miter;stroke-miterlimit:10;stroke-dasharray:none;stroke-opacity:1"
         id="path20" /><path
         d="M 70,595.453 H 1570 M 615.453,50 V 1550 M 342.727,575.453 v 40"
         style="fill:none;stroke:#000000;stroke-width:10;stroke-linecap:butt;stroke-linejoin:miter;stroke-miterlimit:10;stroke-dasharray:none;stroke-opacity:1"
         id="path22" /><path
         d="M 70,595.453 H 1570 M 615.453,50 V 1550 M 479.09,575.453 v 40"
         style="fill:none;stroke:#000000;stroke-width:10;stroke-linecap:butt;stroke-linejoin:miter;stroke-miterlimit:10;stroke-dasharray:none;stroke-opacity:1"
         id="path24" /><path
         d="M 70,595.453 H 1570 M 615.453,50 v 1500 m 0,-974.547 v 40"
         style="fill:none;stroke:#000000;stroke-width:10;stroke-linecap:butt;stroke-linejoin:miter;stroke-miterlimit:10;stroke-dasharray:none;stroke-opacity:1"
         id="path26" /><path
         d="M 70,595.453 H 1570 M 615.453,50 V 1550 M 751.816,575.453 v 40"
         style="fill:none;stroke:#000000;stroke-width:10;stroke-linecap:butt;stroke-linejoin:miter;stroke-miterlimit:10;stroke-dasharray:none;stroke-opacity:1"
         id="path28" /><path
         d="M 70,595.453 H 1570 M 615.453,50 V 1550 M 888.184,575.453 v 40"
         style="fill:none;stroke:#000000;stroke-width:10;stroke-linecap:butt;stroke-linejoin:miter;stroke-miterlimit:10;stroke-dasharray:none;stroke-opacity:1"
         id="path30" /><path
         d="M 70,595.453 H 1570 M 615.453,50 V 1550 M 1024.55,575.453 v 40"
         style="fill:none;stroke:#000000;stroke-width:10;stroke-linecap:butt;stroke-linejoin:miter;stroke-miterlimit:10;stroke-dasharray:none;stroke-opacity:1"
         id="path32" /><path
         d="M 70,595.453 H 1570 M 615.453,50 V 1550 M 1160.91,575.453 v 40"
         style="fill:none;stroke:#000000;stroke-width:10;stroke-linecap:butt;stroke-linejoin:miter;stroke-miterlimit:10;stroke-dasharray:none;stroke-opacity:1"
         id="path34" /><path
         d="M 70,595.453 H 1570 M 615.453,50 V 1550 M 1297.27,575.453 v 40"
         style="fill:none;stroke:#000000;stroke-width:10;stroke-linecap:butt;stroke-linejoin:miter;stroke-miterlimit:10;stroke-dasharray:none;stroke-opacity:1"
         id="path36" /><path
         d="M 70,595.453 H 1570 M 615.453,50 V 1550 M 1433.64,575.453 v 40"
         style="fill:none;stroke:#000000;stroke-width:10;stroke-linecap:butt;stroke-linejoin:miter;stroke-miterlimit:10;stroke-dasharray:none;stroke-opacity:1"
         id="path38" /><path
         d="M 70,595.453 H 1570 M 615.453,50 V 1550 M 1570,575.453 v 40"
         style="fill:none;stroke:#000000;stroke-width:10;stroke-linecap:butt;stroke-linejoin:miter;stroke-miterlimit:10;stroke-dasharray:none;stroke-opacity:1"
         id="path40" /><path
         d="M 70,595.453 H 1570 M 615.453,50 v 1500 m -20,-1500 h 40"
         style="fill:none;stroke:#000000;stroke-width:10;stroke-linecap:butt;stroke-linejoin:miter;stroke-miterlimit:10;stroke-dasharray:none;stroke-opacity:1"
         id="path42" /><path
         d="M 70,595.453 H 1570 M 615.453,50 v 1500 m -20,-1363.637 h 40"
         style="fill:none;stroke:#000000;stroke-width:10;stroke-linecap:butt;stroke-linejoin:miter;stroke-miterlimit:10;stroke-dasharray:none;stroke-opacity:1"
         id="path44" /><path
         d="M 70,595.453 H 1570 M 615.453,50 v 1500 m -20,-1227.273 h 40"
         style="fill:none;stroke:#000000;stroke-width:10;stroke-linecap:butt;stroke-linejoin:miter;stroke-miterlimit:10;stroke-dasharray:none;stroke-opacity:1"
         id="path46" /><path
         d="M 70,595.453 H 1570 M 615.453,50 v 1500 m -20,-1090.91 h 40"
         style="fill:none;stroke:#000000;stroke-width:10;stroke-linecap:butt;stroke-linejoin:miter;stroke-miterlimit:10;stroke-dasharray:none;stroke-opacity:1"
         id="path48" /><path
         d="M 70,595.453 H 1570 M 615.453,50 v 1500 m -20,-954.547 h 40"
         style="fill:none;stroke:#000000;stroke-width:10;stroke-linecap:butt;stroke-linejoin:miter;stroke-miterlimit:10;stroke-dasharray:none;stroke-opacity:1"
         id="path50" /><path
         d="M 70,595.453 H 1570 M 615.453,50 v 1500 m -20,-818.184 h 40"
         style="fill:none;stroke:#000000;stroke-width:10;stroke-linecap:butt;stroke-linejoin:miter;stroke-miterlimit:10;stroke-dasharray:none;stroke-opacity:1"
         id="path52" /><path
         d="M 70,595.453 H 1570 M 615.453,50 v 1500 m -20,-681.816 h 40"
         style="fill:none;stroke:#000000;stroke-width:10;stroke-linecap:butt;stroke-linejoin:miter;stroke-miterlimit:10;stroke-dasharray:none;stroke-opacity:1"
         id="path54" /><path
         d="M 70,595.453 H 1570 M 615.453,50 v 1500 m -20,-545.45 h 40"
         style="fill:none;stroke:#000000;stroke-width:10;stroke-linecap:butt;stroke-linejoin:miter;stroke-miterlimit:10;stroke-dasharray:none;stroke-opacity:1"
         id="path56" /><path
         d="M 70,595.453 H 1570 M 615.453,50 v 1500 m -20,-409.09 h 40"
         style="fill:none;stroke:#000000;stroke-width:10;stroke-linecap:butt;stroke-linejoin:miter;stroke-miterlimit:10;stroke-dasharray:none;stroke-opacity:1"
         id="path58" /><path
         d="M 70,595.453 H 1570 M 615.453,50 v 1500 m -20,-272.73 h 40"
         style="fill:none;stroke:#000000;stroke-width:10;stroke-linecap:butt;stroke-linejoin:miter;stroke-miterlimit:10;stroke-dasharray:none;stroke-opacity:1"
         id="path60" /><path
         d="M 70,595.453 H 1570 M 615.453,50 v 1500 m -20,-136.36 h 40"
         style="fill:none;stroke:#000000;stroke-width:10;stroke-linecap:butt;stroke-linejoin:miter;stroke-miterlimit:10;stroke-dasharray:none;stroke-opacity:1"
         id="path62" /><path
         d="M 70,595.453 H 1570 M 615.453,50 v 1500 m -20,0 h 40"
         style="fill:none;stroke:#000000;stroke-width:10;stroke-linecap:butt;stroke-linejoin:miter;stroke-miterlimit:10;stroke-dasharray:none;stroke-opacity:1"
         id="path64" /><g
         id="g66"
         transform="scale(10)"><text
           transform="matrix(1,0,0,-1,0.358203,48.0145)"
           style="font-variant:normal;font-weight:normal;font-size:10px;font-family:CMSS10;-inkscape-font-specification:CMSS10;writing-mode:lr-tb;fill:#000000;fill-opacity:1;fill-rule:nonzero;stroke:none"
           id="text80"><tspan
             x="0 3.3299999 8.3299999 27.272699 30.602699 35.602699 83.4786 88.4786 110.7516 115.7516 138.02431 143.02431"
             y="0"
             sodipodi:role="line"
             id="tspan68">-40-20204060</tspan><tspan
             x="43.9035 47.233501 52.233501"
             y="46.280102"
             sodipodi:role="line"
             id="tspan70">-40</tspan><tspan
             x="43.9035 47.233501 52.233501"
             y="19.007401"
             sodipodi:role="line"
             id="tspan72">-20</tspan><tspan
             x="47.22459 52.22459"
             y="-35.5383"
             sodipodi:role="line"
             id="tspan74">20</tspan><tspan
             x="47.22459 52.22459"
             y="-62.811001"
             sodipodi:role="line"
             id="tspan76">40</tspan><tspan
             x="47.22459 52.22459"
             y="-90.083702"
             sodipodi:role="line"
             id="tspan78">60</tspan></text></g><path
         d="M 983.637,568.184 C 983.637,779.055 812.691,950 601.816,950 v 0 C 390.945,950 220,779.055 220,568.184 v 0 C 220,357.309 390.945,186.363 601.816,186.363 v 0 c 210.875,0 381.821,170.946 381.821,381.821 z"
         style="fill:none;stroke:#ff0000;stroke-width:10;stroke-linecap:butt;stroke-linejoin:miter;stroke-miterlimit:10;stroke-dasharray:none;stroke-opacity:1"
         id="path82" /><path
         d="m 621.816,568.184 c 0,11.043 -8.953,20 -20,20 v 0 c -11.043,0 -20,-8.957 -20,-20 v 0 c 0,-11.047 8.957,-20 20,-20 v 0 c 11.047,0 20,8.953 20,20"
         style="fill:#ff0000;fill-opacity:1;fill-rule:nonzero;stroke:none"
         id="path84" /><g
         id="g86"
         transform="scale(10)"><text
           transform="matrix(1,0,0,-1,51.4164,60.4184)"
           style="font-variant:normal;font-size:9px;font-family:'Nimbus Roman';-inkscape-font-specification:NimbusRomNo9L-ReguItal;writing-mode:lr-tb;fill:#000000;fill-opacity:1;fill-rule:nonzero;stroke:none"
           id="text90"><tspan
             x="0"
             y="0"
             id="tspan88">A</tspan></text></g><path
         d="m 1460.91,663.637 c 0,195.808 -158.73,354.543 -354.55,354.543 v 0 c -195.805,0 -354.544,-158.735 -354.544,-354.543 v 0 c 0,-195.809 158.739,-354.547 354.544,-354.547 v 0 c 195.82,0 354.55,158.738 354.55,354.547 z"
         style="fill:none;stroke:#0000ff;stroke-width:10;stroke-linecap:butt;stroke-linejoin:miter;stroke-miterlimit:10;stroke-dasharray:none;stroke-opacity:1"
         id="path92" /><path
         d="m 1126.36,663.637 c 0,11.047 -8.95,20 -20,20 v 0 c -11.04,0 -20,-8.953 -20,-20 v 0 c 0,-11.047 8.96,-20 20,-20 v 0 c 11.05,0 20,8.953 20,20"
         style="fill:#0000ff;fill-opacity:1;fill-rule:nonzero;stroke:none"
         id="path94" /><g
         id="g96"
         transform="scale(10)"><text
           transform="matrix(1,0,0,-1,101.871,69.9637)"
           style="font-variant:normal;font-size:9px;font-family:'Nimbus Roman';-inkscape-font-specification:NimbusRomNo9L-ReguItal;writing-mode:lr-tb;fill:#000000;fill-opacity:1;fill-rule:nonzero;stroke:none"
           id="text100"><tspan
             x="0"
             y="0"
             id="tspan98">B</tspan></text></g><path
         d="m 1024.55,1072.73 c 0,105.43 -85.476,190.91 -190.913,190.91 v 0 c -105.438,0 -190.91,-85.48 -190.91,-190.91 v 0 c 0,-105.437 85.472,-190.914 190.91,-190.914 v 0 c 105.437,0 190.913,85.477 190.913,190.914 z"
         style="fill:none;stroke:#00ff00;stroke-width:10;stroke-linecap:butt;stroke-linejoin:miter;stroke-miterlimit:10;stroke-dasharray:none;stroke-opacity:1"
         id="path102" /><path
         d="m 853.637,1072.73 c 0,11.04 -8.953,20 -20,20 v 0 c -11.047,0 -20,-8.96 -20,-20 v 0 c 0,-11.05 8.953,-20 20,-20 v 0 c 11.047,0 20,8.95 20,20"
         style="fill:#00ff00;fill-opacity:1;fill-rule:nonzero;stroke:none"
         id="path104" /><g
         id="g106"
         transform="scale(10)"><text
           transform="matrix(1,0,0,-1,73.7949,110.952)"
           style="font-variant:normal;font-size:9px;font-family:'Nimbus Roman';-inkscape-font-specification:NimbusRomNo9L-ReguItal;writing-mode:lr-tb;fill:#000000;fill-opacity:1;fill-rule:nonzero;stroke:none"
           id="text110"><tspan
             x="0"
             y="0"
             id="tspan108">C</tspan></text></g></g></g></svg>
