<?xml version="1.0" encoding="UTF-8" standalone="no"?>
<svg
   xmlns:dc="http://purl.org/dc/elements/1.1/"
   xmlns:cc="http://creativecommons.org/ns#"
   xmlns:rdf="http://www.w3.org/1999/02/22-rdf-syntax-ns#"
   xmlns:svg="http://www.w3.org/2000/svg"
   xmlns="http://www.w3.org/2000/svg"
   xmlns:sodipodi="http://sodipodi.sourceforge.net/DTD/sodipodi-0.dtd"
   xmlns:inkscape="http://www.inkscape.org/namespaces/inkscape"
   version="1.1"
   id="svg2"
   xml:space="preserve"
   width="286.66666"
   height="260"
   viewBox="0 0 286.66666 260"
   sodipodi:docname="GDP_consumption.eps"><metadata
     id="metadata8"><rdf:RDF><cc:Work
         rdf:about=""><dc:format>image/svg+xml</dc:format><dc:type
           rdf:resource="http://purl.org/dc/dcmitype/StillImage" /></cc:Work></rdf:RDF></metadata><defs
     id="defs6" /><sodipodi:namedview
     pagecolor="#ffffff"
     bordercolor="#666666"
     borderopacity="1"
     objecttolerance="10"
     gridtolerance="10"
     guidetolerance="10"
     inkscape:pageopacity="0"
     inkscape:pageshadow="2"
     inkscape:window-width="640"
     inkscape:window-height="480"
     id="namedview4" /><g
     id="g10"
     inkscape:groupmode="layer"
     inkscape:label="ink_ext_XXXXXX"
     transform="matrix(1.3333333,0,0,-1.3333333,0,260)"><g
       id="g12"
       transform="scale(0.1)"><path
         d="M 350,150 H 2100 M 350,150 V 1900"
         style="fill:none;stroke:#000000;stroke-width:10;stroke-linecap:butt;stroke-linejoin:miter;stroke-miterlimit:10;stroke-dasharray:none;stroke-opacity:1"
         id="path14" /><path
         d="m 350,150 h 1750 m -1750,0 v 1750 m 0,-1770 v 40"
         style="fill:none;stroke:#000000;stroke-width:10;stroke-linecap:butt;stroke-linejoin:miter;stroke-miterlimit:10;stroke-dasharray:none;stroke-opacity:1"
         id="path16" /><path
         d="M 350,150 H 2100 M 350,150 V 1900 M 544.445,130 v 40"
         style="fill:none;stroke:#000000;stroke-width:10;stroke-linecap:butt;stroke-linejoin:miter;stroke-miterlimit:10;stroke-dasharray:none;stroke-opacity:1"
         id="path18" /><path
         d="M 350,150 H 2100 M 350,150 V 1900 M 738.891,130 v 40"
         style="fill:none;stroke:#000000;stroke-width:10;stroke-linecap:butt;stroke-linejoin:miter;stroke-miterlimit:10;stroke-dasharray:none;stroke-opacity:1"
         id="path20" /><path
         d="M 350,150 H 2100 M 350,150 V 1900 M 933.332,130 v 40"
         style="fill:none;stroke:#000000;stroke-width:10;stroke-linecap:butt;stroke-linejoin:miter;stroke-miterlimit:10;stroke-dasharray:none;stroke-opacity:1"
         id="path22" /><path
         d="M 350,150 H 2100 M 350,150 V 1900 M 1127.78,130 v 40"
         style="fill:none;stroke:#000000;stroke-width:10;stroke-linecap:butt;stroke-linejoin:miter;stroke-miterlimit:10;stroke-dasharray:none;stroke-opacity:1"
         id="path24" /><path
         d="M 350,150 H 2100 M 350,150 V 1900 M 1322.22,130 v 40"
         style="fill:none;stroke:#000000;stroke-width:10;stroke-linecap:butt;stroke-linejoin:miter;stroke-miterlimit:10;stroke-dasharray:none;stroke-opacity:1"
         id="path26" /><path
         d="M 350,150 H 2100 M 350,150 V 1900 M 1516.67,130 v 40"
         style="fill:none;stroke:#000000;stroke-width:10;stroke-linecap:butt;stroke-linejoin:miter;stroke-miterlimit:10;stroke-dasharray:none;stroke-opacity:1"
         id="path28" /><path
         d="M 350,150 H 2100 M 350,150 V 1900 M 1711.11,130 v 40"
         style="fill:none;stroke:#000000;stroke-width:10;stroke-linecap:butt;stroke-linejoin:miter;stroke-miterlimit:10;stroke-dasharray:none;stroke-opacity:1"
         id="path30" /><path
         d="M 350,150 H 2100 M 350,150 V 1900 M 1905.55,130 v 40"
         style="fill:none;stroke:#000000;stroke-width:10;stroke-linecap:butt;stroke-linejoin:miter;stroke-miterlimit:10;stroke-dasharray:none;stroke-opacity:1"
         id="path32" /><path
         d="M 350,150 H 2100 M 350,150 V 1900 M 330,150 h 40"
         style="fill:none;stroke:#000000;stroke-width:10;stroke-linecap:butt;stroke-linejoin:miter;stroke-miterlimit:10;stroke-dasharray:none;stroke-opacity:1"
         id="path34" /><path
         d="M 350,150 H 2100 M 350,150 V 1900 M 330,309.09 h 40"
         style="fill:none;stroke:#000000;stroke-width:10;stroke-linecap:butt;stroke-linejoin:miter;stroke-miterlimit:10;stroke-dasharray:none;stroke-opacity:1"
         id="path36" /><path
         d="M 350,150 H 2100 M 350,150 V 1900 M 330,468.184 h 40"
         style="fill:none;stroke:#000000;stroke-width:10;stroke-linecap:butt;stroke-linejoin:miter;stroke-miterlimit:10;stroke-dasharray:none;stroke-opacity:1"
         id="path38" /><path
         d="M 350,150 H 2100 M 350,150 V 1900 M 330,627.273 h 40"
         style="fill:none;stroke:#000000;stroke-width:10;stroke-linecap:butt;stroke-linejoin:miter;stroke-miterlimit:10;stroke-dasharray:none;stroke-opacity:1"
         id="path40" /><path
         d="M 350,150 H 2100 M 350,150 V 1900 M 330,786.363 h 40"
         style="fill:none;stroke:#000000;stroke-width:10;stroke-linecap:butt;stroke-linejoin:miter;stroke-miterlimit:10;stroke-dasharray:none;stroke-opacity:1"
         id="path42" /><path
         d="M 350,150 H 2100 M 350,150 V 1900 M 330,945.453 h 40"
         style="fill:none;stroke:#000000;stroke-width:10;stroke-linecap:butt;stroke-linejoin:miter;stroke-miterlimit:10;stroke-dasharray:none;stroke-opacity:1"
         id="path44" /><path
         d="m 350,150 h 1750 m -1750,0 v 1750 m -20,-795.45 h 40"
         style="fill:none;stroke:#000000;stroke-width:10;stroke-linecap:butt;stroke-linejoin:miter;stroke-miterlimit:10;stroke-dasharray:none;stroke-opacity:1"
         id="path46" /><path
         d="m 350,150 h 1750 m -1750,0 v 1750 m -20,-636.36 h 40"
         style="fill:none;stroke:#000000;stroke-width:10;stroke-linecap:butt;stroke-linejoin:miter;stroke-miterlimit:10;stroke-dasharray:none;stroke-opacity:1"
         id="path48" /><path
         d="m 350,150 h 1750 m -1750,0 v 1750 m -20,-477.27 h 40"
         style="fill:none;stroke:#000000;stroke-width:10;stroke-linecap:butt;stroke-linejoin:miter;stroke-miterlimit:10;stroke-dasharray:none;stroke-opacity:1"
         id="path50" /><path
         d="m 350,150 h 1750 m -1750,0 v 1750 m -20,-318.18 h 40"
         style="fill:none;stroke:#000000;stroke-width:10;stroke-linecap:butt;stroke-linejoin:miter;stroke-miterlimit:10;stroke-dasharray:none;stroke-opacity:1"
         id="path52" /><path
         d="m 350,150 h 1750 m -1750,0 v 1750 m -20,-159.09 h 40"
         style="fill:none;stroke:#000000;stroke-width:10;stroke-linecap:butt;stroke-linejoin:miter;stroke-miterlimit:10;stroke-dasharray:none;stroke-opacity:1"
         id="path54" /><g
         id="g56"
         transform="scale(10)"><text
           transform="matrix(1,0,0,-1,58.9449,3.46875)"
           style="font-variant:normal;font-weight:normal;font-size:10px;font-family:CMSS10;-inkscape-font-specification:CMSS10;writing-mode:lr-tb;fill:#000000;fill-opacity:1;fill-rule:nonzero;stroke:none"
           id="text70"><tspan
             x="0 5 10 15 20 25 38.888672 43.888672 48.888672 53.888672 58.888672 63.888672 77.777733 82.777733 87.777733 92.777733 97.777733 102.77773 116.6664 121.6664 126.6664 131.6664 136.6664 141.6664"
             y="0"
             sodipodi:role="line"
             id="tspan58">100000200000300000400000</tspan><tspan
             x="-57.832802 -52.832802 -47.832802 -42.832802 -37.832802 -32.832802"
             y="-40.084"
             sodipodi:role="line"
             id="tspan60">100000</tspan><tspan
             x="-57.832802 -52.832802 -47.832802 -42.832802 -37.832802 -32.832802"
             y="-71.902"
             sodipodi:role="line"
             id="tspan62">200000</tspan><tspan
             x="-57.832802 -52.832802 -47.832802 -42.832802 -37.832802 -32.832802"
             y="-103.7204"
             sodipodi:role="line"
             id="tspan64">300000</tspan><tspan
             x="-57.832802 -52.832802 -47.832802 -42.832802 -37.832802 -32.832802"
             y="-135.53841"
             sodipodi:role="line"
             id="tspan66">400000</tspan><tspan
             x="-57.832802 -52.832802 -47.832802 -42.832802 -37.832802 -32.832802"
             y="-167.3568"
             sodipodi:role="line"
             id="tspan68">500000</tspan></text></g><path
         d="m 370.266,150.273 c 0,11.047 -8.957,20 -20,20 v 0 c -11.047,0 -20,-8.953 -20,-20 v 0 c 0,-11.046 8.953,-20 20,-20 v 0 c 11.043,0 20,8.954 20,20"
         style="fill:#0000ff;fill-opacity:1;fill-rule:nonzero;stroke:none"
         id="path72" /><path
         d="m 370.652,150.703 c 0,11.043 -8.957,20 -20,20 v 0 c -11.047,0 -20,-8.957 -20,-20 v 0 c 0,-11.047 8.953,-20 20,-20 v 0 c 11.043,0 20,8.953 20,20"
         style="fill:#0000ff;fill-opacity:1;fill-rule:nonzero;stroke:none"
         id="path74" /><path
         d="m 371.805,151.918 c 0,11.047 -8.953,20 -20,20 v 0 c -11.043,0 -20,-8.953 -20,-20 v 0 c 0,-11.047 8.957,-20 20,-20 v 0 c 11.047,0 20,8.953 20,20"
         style="fill:#0000ff;fill-opacity:1;fill-rule:nonzero;stroke:none"
         id="path76" /><path
         d="m 375.926,156.375 c 0,11.047 -8.953,20 -20,20 v 0 c -11.047,0 -20,-8.953 -20,-20 v 0 c 0,-11.043 8.953,-20 20,-20 v 0 c 11.047,0 20,8.957 20,20"
         style="fill:#0000ff;fill-opacity:1;fill-rule:nonzero;stroke:none"
         id="path78" /><path
         d="m 384.953,165.836 c 0,11.047 -8.953,20 -20,20 v 0 c -11.047,0 -20,-8.953 -20,-20 v 0 c 0,-11.043 8.953,-20 20,-20 v 0 c 11.047,0 20,8.957 20,20"
         style="fill:#0000ff;fill-opacity:1;fill-rule:nonzero;stroke:none"
         id="path80" /><path
         d="m 394.336,174.336 c 0,11.047 -8.953,20 -20,20 v 0 c -11.047,0 -20,-8.953 -20,-20 v 0 c 0,-11.043 8.953,-20 20,-20 v 0 c 11.047,0 20,8.957 20,20"
         style="fill:#0000ff;fill-opacity:1;fill-rule:nonzero;stroke:none"
         id="path82" /><path
         d="m 407.777,186.223 c 0,11.047 -8.957,20 -20,20 v 0 c -11.047,0 -20,-8.953 -20,-20 v 0 c 0,-11.047 8.953,-20 20,-20 v 0 c 11.043,0 20,8.953 20,20"
         style="fill:#0000ff;fill-opacity:1;fill-rule:nonzero;stroke:none"
         id="path84" /><path
         d="m 455.449,231.23 c 0,11.047 -8.957,20 -20,20 v 0 c -11.047,0 -20,-8.953 -20,-20 v 0 c 0,-11.046 8.953,-20 20,-20 v 0 c 11.043,0 20,8.954 20,20"
         style="fill:#0000ff;fill-opacity:1;fill-rule:nonzero;stroke:none"
         id="path86" /><path
         d="m 499.543,267.902 c 0,11.047 -8.953,20 -20,20 v 0 c -11.047,0 -20,-8.953 -20,-20 v 0 c 0,-11.047 8.953,-20 20,-20 v 0 c 11.047,0 20,8.953 20,20"
         style="fill:#0000ff;fill-opacity:1;fill-rule:nonzero;stroke:none"
         id="path88" /><path
         d="m 561.77,325.609 c 0,11.047 -8.957,20 -20,20 v 0 c -11.047,0 -20,-8.953 -20,-20 v 0 c 0,-11.046 8.953,-20 20,-20 v 0 c 11.043,0 20,8.954 20,20"
         style="fill:#0000ff;fill-opacity:1;fill-rule:nonzero;stroke:none"
         id="path90" /><path
         d="m 640.617,407.68 c 0,11.043 -8.953,20 -20,20 v 0 c -11.047,0 -20,-8.957 -20,-20 v 0 c 0,-11.047 8.953,-20 20,-20 v 0 c 11.047,0 20,8.953 20,20"
         style="fill:#0000ff;fill-opacity:1;fill-rule:nonzero;stroke:none"
         id="path92" /><path
         d="m 761.734,525.281 c 0,11.047 -8.953,20 -20,20 v 0 c -11.046,0 -20,-8.953 -20,-20 v 0 c 0,-11.043 8.954,-20 20,-20 v 0 c 11.047,0 20,8.957 20,20"
         style="fill:#0000ff;fill-opacity:1;fill-rule:nonzero;stroke:none"
         id="path94" /><path
         d="m 864.352,633.691 c 0,11.043 -8.954,20 -20,20 v 0 c -11.047,0 -20,-8.957 -20,-20 v 0 c 0,-11.046 8.953,-20 20,-20 v 0 c 11.046,0 20,8.954 20,20"
         style="fill:#0000ff;fill-opacity:1;fill-rule:nonzero;stroke:none"
         id="path96" /><path
         d="m 1026.52,778.18 c 0,11.043 -8.96,20 -20,20 v 0 c -11.047,0 -20.004,-8.957 -20.004,-20 v 0 c 0,-11.047 8.957,-20 20.004,-20 v 0 c 11.04,0 20,8.953 20,20"
         style="fill:#0000ff;fill-opacity:1;fill-rule:nonzero;stroke:none"
         id="path98" /><path
         d="m 1190.77,937.078 c 0,11.047 -8.96,20 -20,20 v 0 c -11.05,0 -20,-8.953 -20,-20 v 0 c 0,-11.043 8.95,-20 20,-20 v 0 c 11.04,0 20,8.957 20,20"
         style="fill:#0000ff;fill-opacity:1;fill-rule:nonzero;stroke:none"
         id="path100" /><path
         d="m 1346.26,1069.4 c 0,11.05 -8.96,20 -20,20 v 0 c -11.05,0 -20,-8.95 -20,-20 v 0 c 0,-11.04 8.95,-20 20,-20 v 0 c 11.04,0 20,8.96 20,20"
         style="fill:#0000ff;fill-opacity:1;fill-rule:nonzero;stroke:none"
         id="path102" /><path
         d="m 1516.71,1246.62 c 0,11.04 -8.96,20 -20,20 v 0 c -11.05,0 -20,-8.96 -20,-20 v 0 c 0,-11.05 8.95,-20 20,-20 v 0 c 11.04,0 20,8.95 20,20"
         style="fill:#0000ff;fill-opacity:1;fill-rule:nonzero;stroke:none"
         id="path104" /><path
         d="m 1711.42,1473.66 c 0,11.04 -8.95,20 -20,20 v 0 c -11.04,0 -20,-8.96 -20,-20 v 0 c 0,-11.05 8.96,-20 20,-20 v 0 c 11.05,0 20,8.95 20,20"
         style="fill:#0000ff;fill-opacity:1;fill-rule:nonzero;stroke:none"
         id="path106" /><path
         d="m 2006.9,1787.68 c 0,11.05 -8.95,20 -20,20 v 0 c -11.04,0 -20,-8.95 -20,-20 v 0 c 0,-11.04 8.96,-20 20,-20 v 0 c 11.05,0 20,8.96 20,20"
         style="fill:#0000ff;fill-opacity:1;fill-rule:nonzero;stroke:none"
         id="path108" /><path
         d="m 1934.29,1734.57 c 0,11.04 -8.95,20 -20,20 v 0 c -11.05,0 -20,-8.96 -20,-20 v 0 c 0,-11.05 8.95,-20 20,-20 v 0 c 11.05,0 20,8.95 20,20"
         style="fill:#0000ff;fill-opacity:1;fill-rule:nonzero;stroke:none"
         id="path110" /><path
         d="m 1946.64,1784.31 c 0,11.05 -8.95,20 -20,20 v 0 c -11.04,0 -20,-8.95 -20,-20 v 0 c 0,-11.04 8.96,-20 20,-20 v 0 c 11.05,0 20,8.96 20,20"
         style="fill:#0000ff;fill-opacity:1;fill-rule:nonzero;stroke:none"
         id="path112" /></g></g></svg>
