<?xml version="1.0" encoding="UTF-8" standalone="no"?>
<svg
   xmlns:dc="http://purl.org/dc/elements/1.1/"
   xmlns:cc="http://creativecommons.org/ns#"
   xmlns:rdf="http://www.w3.org/1999/02/22-rdf-syntax-ns#"
   xmlns:svg="http://www.w3.org/2000/svg"
   xmlns="http://www.w3.org/2000/svg"
   xmlns:sodipodi="http://sodipodi.sourceforge.net/DTD/sodipodi-0.dtd"
   xmlns:inkscape="http://www.inkscape.org/namespaces/inkscape"
   version="1.1"
   id="svg2"
   xml:space="preserve"
   width="200"
   height="260"
   viewBox="0 0 200 260"
   sodipodi:docname="Fig_29_12_term.eps"><metadata
     id="metadata8"><rdf:RDF><cc:Work
         rdf:about=""><dc:format>image/svg+xml</dc:format><dc:type
           rdf:resource="http://purl.org/dc/dcmitype/StillImage" /></cc:Work></rdf:RDF></metadata><defs
     id="defs6" /><sodipodi:namedview
     pagecolor="#ffffff"
     bordercolor="#666666"
     borderopacity="1"
     objecttolerance="10"
     gridtolerance="10"
     guidetolerance="10"
     inkscape:pageopacity="0"
     inkscape:pageshadow="2"
     inkscape:window-width="640"
     inkscape:window-height="480"
     id="namedview4" /><g
     id="g10"
     inkscape:groupmode="layer"
     inkscape:label="ink_ext_XXXXXX"
     transform="matrix(1.3333333,0,0,-1.3333333,0,260)"><g
       id="g12"
       transform="scale(0.1)"><g
         id="g14"
         transform="scale(10)"><text
           transform="matrix(1,0,0,-1,5,15)"
           style="font-variant:normal;font-weight:normal;font-size:12px;font-family:'Times New Roman';-inkscape-font-specification:Times-Roman;writing-mode:lr-tb;fill:#000000;fill-opacity:1;fill-rule:nonzero;stroke:none"
           id="text40"><tspan
             x="0 9.3360004 12.672 18.672001 24.672001 28.667999 0 9.3360004 12.672 18.672001 24.672001 28.667999"
             y="0"
             sodipodi:role="line"
             id="tspan16">minorsminors</tspan><tspan
             x="0 6 9.9960003 15.324 21.323999"
             y="-15"
             sodipodi:role="line"
             id="tspan18">graph</tspan><tspan
             x="0 3.336 7.3319998 12.66 17.988001"
             y="-30"
             sodipodi:role="line"
             id="tspan20">trees</tspan><tspan
             x="0 4.6680002 10.668 14.664 20.664 25.992001"
             y="-45"
             sodipodi:role="line"
             id="tspan22">survey</tspan><tspan
             x="0 7.3319998 14.004"
             y="-60"
             sodipodi:role="line"
             id="tspan24">EPS</tspan><tspan
             x="0 3.336 6.6719999 16.007999"
             y="-75"
             sodipodi:role="line"
             id="tspan26">time</tspan><tspan
             x="0 3.9960001 9.3240004 13.992 19.992001 25.992001 31.992001 36.66"
             y="-90"
             sodipodi:role="line"
             id="tspan28">response</tspan><tspan
             x="0 4.6680002 10.668 15.336 18.672001 24"
             y="-105"
             sodipodi:role="line"
             id="tspan30">system</tspan><tspan
             x="0 6 10.668 15.996"
             y="-120"
             sodipodi:role="line"
             id="tspan32">user</tspan><tspan
             x="0 5.3280001 11.328 20.664 26.664 32.664001 36 41.327999"
             y="-135"
             sodipodi:role="line"
             id="tspan34">computer</tspan><tspan
             x="0 3.336 9.3360004 12.672 18 21.996 25.992001 31.32 36.647999"
             y="-150"
             sodipodi:role="line"
             id="tspan36">interface</tspan><tspan
             x="0 6 12 21.336 26.664"
             y="-165"
             sodipodi:role="line"
             id="tspan38">human</tspan></text></g><path
         d="M 550,70 V 1900"
         style="fill:none;stroke:#000000;stroke-width:10;stroke-linecap:butt;stroke-linejoin:miter;stroke-miterlimit:10;stroke-dasharray:none;stroke-opacity:1"
         id="path42" /><path
         d="m 550,70 h 50"
         style="fill:none;stroke:#000000;stroke-width:10;stroke-linecap:butt;stroke-linejoin:miter;stroke-miterlimit:10;stroke-dasharray:none;stroke-opacity:1"
         id="path44" /><path
         d="m 550,1900 h 50"
         style="fill:none;stroke:#000000;stroke-width:10;stroke-linecap:butt;stroke-linejoin:miter;stroke-miterlimit:10;stroke-dasharray:none;stroke-opacity:1"
         id="path46" /><g
         id="g48"
         transform="scale(10)"><text
           transform="matrix(1,0,0,-1,65,15)"
           style="font-variant:normal;font-weight:normal;font-size:12px;font-family:Symbol;-inkscape-font-specification:Symbol;writing-mode:lr-tb;fill:#000000;fill-opacity:1;fill-rule:nonzero;stroke:none"
           id="text98"><tspan
             x="0 6.5879998 12.588 15.588 21.587999"
             y="0"
             sodipodi:role="line"
             id="tspan50">−0.03</tspan><tspan
             x="0 6.5879998 12.588 15.588 21.587999"
             y="-15"
             sodipodi:role="line"
             id="tspan52">−0.04</tspan><tspan
             x="0 6.5879998 12.588 15.588 21.587999"
             y="-30"
             sodipodi:role="line"
             id="tspan54">−0.01</tspan><tspan
             x="0 6.5879998 12.588 15.588 21.587999"
             y="-45"
             sodipodi:role="line"
             id="tspan56">−0.21</tspan><tspan
             x="0 6.5879998 12.588 15.588 21.587999"
             y="-60"
             sodipodi:role="line"
             id="tspan58">−0.30</tspan><tspan
             x="0 6.5879998 12.588 15.588 21.587999"
             y="-75"
             sodipodi:role="line"
             id="tspan60">−0.27</tspan><tspan
             x="0 6.5879998 12.588 15.588 21.587999"
             y="-90"
             sodipodi:role="line"
             id="tspan62">−0.27</tspan><tspan
             x="0 6.5879998 12.588 15.588 21.587999"
             y="-105"
             sodipodi:role="line"
             id="tspan64">−0.64</tspan><tspan
             x="0 6.5879998 12.588 15.588 21.587999"
             y="-120"
             sodipodi:role="line"
             id="tspan66">−0.40</tspan><tspan
             x="0 6.5879998 12.588 15.588 21.587999"
             y="-135"
             sodipodi:role="line"
             id="tspan68">−0.24</tspan><tspan
             x="0 6.5879998 12.588 15.588 21.587999"
             y="-150"
             sodipodi:role="line"
             id="tspan70">−0.20</tspan><tspan
             x="0 6.5879998 12.588 15.588 21.587999"
             y="-165"
             sodipodi:role="line"
             id="tspan72">−0.22</tspan><tspan
             x="46.5 52.5 55.5 61.5"
             y="0"
             sodipodi:role="line"
             id="tspan74">0.45</tspan><tspan
             x="46.5 52.5 55.5 61.5"
             y="-15"
             sodipodi:role="line"
             id="tspan76">0.62</tspan><tspan
             x="46.5 52.5 55.5 61.5"
             y="-30"
             sodipodi:role="line"
             id="tspan78">0.49</tspan><tspan
             x="46.5 52.5 55.5 61.5"
             y="-45"
             sodipodi:role="line"
             id="tspan80">0.27</tspan><tspan
             x="40 46.588001 52.588001 55.588001 61.588001"
             y="-60"
             sodipodi:role="line"
             id="tspan82">−0.14</tspan><tspan
             x="46.5 52.5 55.5 61.5"
             y="-75"
             sodipodi:role="line"
             id="tspan84">0.11</tspan><tspan
             x="46.5 52.5 55.5 61.5"
             y="-90"
             sodipodi:role="line"
             id="tspan86">0.11</tspan><tspan
             x="40 46.588001 52.588001 55.588001 61.588001"
             y="-105"
             sodipodi:role="line"
             id="tspan88">−0.17</tspan><tspan
             x="46.5 52.5 55.5 61.5"
             y="-120"
             sodipodi:role="line"
             id="tspan90">0.06</tspan><tspan
             x="46.5 52.5 55.5 61.5"
             y="-135"
             sodipodi:role="line"
             id="tspan92">0.04</tspan><tspan
             x="40 46.588001 52.588001 55.588001 61.588001"
             y="-150"
             sodipodi:role="line"
             id="tspan94">−0.07</tspan><tspan
             x="40 46.588001 52.588001 55.588001 61.588001"
             y="-165"
             sodipodi:role="line"
             id="tspan96">−0.11</tspan></text></g><path
         d="M 1450,70 V 1900"
         style="fill:none;stroke:#000000;stroke-width:10;stroke-linecap:butt;stroke-linejoin:miter;stroke-miterlimit:10;stroke-dasharray:none;stroke-opacity:1"
         id="path100" /><path
         d="m 1450,70 h -50"
         style="fill:none;stroke:#000000;stroke-width:10;stroke-linecap:butt;stroke-linejoin:miter;stroke-miterlimit:10;stroke-dasharray:none;stroke-opacity:1"
         id="path102" /><path
         d="m 1450,1900 h -50"
         style="fill:none;stroke:#000000;stroke-width:10;stroke-linecap:butt;stroke-linejoin:miter;stroke-miterlimit:10;stroke-dasharray:none;stroke-opacity:1"
         id="path104" /></g></g></svg>
