<?xml version="1.0" encoding="UTF-8" standalone="no"?>
<!DOCTYPE svg PUBLIC "-//W3C//DTD SVG 1.1//EN" "http://www.w3.org/Graphics/SVG/1.1/DTD/svg11.dtd">
<svg xmlns="http://www.w3.org/2000/svg" xmlns:xlink="http://www.w3.org/1999/xlink" version="1.1" width="120.550098pt" height="109.5578pt" viewBox="0 0 120.550098 109.5578">
<g enable-background="new">
<path transform="matrix(1,0,0,-1,-9.656494,108.77612)" stroke-width=".79701" stroke-linecap="butt" stroke-miterlimit="10" stroke-linejoin="miter" fill="none" stroke="#000000" d="M 49.60667 88.58376 L 91.41997 88.58376 "/>
<path transform="matrix(1,0,0,-1,81.76347,20.19236)" stroke-width=".6376" stroke-linecap="round" stroke-linejoin="round" fill="none" stroke="#000000" d="M -1.55415 2.0722 C -1.42464 1.29512 0 .1295 .38852 0 C 0 -.1295 -1.42464 -1.29512 -1.55415 -2.0722 "/>
<path transform="matrix(1,0,0,-1,-9.656494,108.77612)" stroke-width=".79701" stroke-linecap="butt" stroke-miterlimit="10" stroke-linejoin="miter" fill="none" stroke="#000000" d="M 49.60667 17.71672 L 91.41997 17.71672 "/>
<path transform="matrix(1,0,0,-1,81.76347,91.0594)" stroke-width=".6376" stroke-linecap="round" stroke-linejoin="round" fill="none" stroke="#000000" d="M -1.55415 2.0722 C -1.42464 1.29512 0 .1295 .38852 0 C 0 -.1295 -1.42464 -1.29512 -1.55415 -2.0722 "/>
<path transform="matrix(1,0,0,-1,-9.656494,108.77612)" stroke-width=".79701" stroke-linecap="butt" stroke-miterlimit="10" stroke-linejoin="miter" fill="none" stroke="#000000" d="M 35.43349 30.11868 L 35.43349 75.47446 "/>
<path transform="matrix(0,-1,-1,-0,25.776997,33.301668)" stroke-width=".6376" stroke-linecap="round" stroke-linejoin="round" fill="none" stroke="#000000" d="M -1.55415 2.0722 C -1.42464 1.29512 0 .1295 .38852 0 C 0 -.1295 -1.42464 -1.29512 -1.55415 -2.0722 "/>
<path transform="matrix(1,0,0,-1,-9.656494,108.77612)" stroke-width=".79701" stroke-linecap="butt" stroke-miterlimit="10" stroke-linejoin="miter" fill="none" stroke="#000000" d="M 106.30052 30.11868 L 106.30052 75.47446 "/>
<path transform="matrix(0,-1,-1,-0,96.64403,33.301668)" stroke-width=".6376" stroke-linecap="round" stroke-linejoin="round" fill="none" stroke="#000000" d="M -1.55415 2.0722 C -1.42464 1.29512 0 .1295 .38852 0 C 0 -.1295 -1.42464 -1.29512 -1.55415 -2.0722 "/>
<text xml:space="preserve" transform="matrix(1 0 -0 1 -244.60251 667.8781)" font-size="9.9626" font-family="MSBM10"><tspan y="-644.253" x="264.07">R</tspan></text>
<text xml:space="preserve" transform="matrix(1 0 -0 1 -244.60251 667.8781)" font-size="6.9738" font-family="CMMI7" font-style="italic"><tspan y="-647.869" x="271.265">n</tspan></text>
<text xml:space="preserve" transform="matrix(1 0 -0 1 -244.60251 667.8781)" font-size="9.9626" font-family="MSBM10"><tspan y="-644.253" x="333.864">R</tspan></text>
<text xml:space="preserve" transform="matrix(1 0 -0 1 -244.60251 667.8781)" font-size="6.9738" font-family="CMMI7" font-style="italic"><tspan y="-647.869" x="341.05903">m</tspan></text>
<text xml:space="preserve" transform="matrix(1 0 -0 1 -244.6025 667.8781)" font-size="9.9626" font-family="CMMI10" font-style="italic"><tspan y="-573.415" x="266.366">V</tspan></text>
<text xml:space="preserve" transform="matrix(1 0 -0 1 -244.6025 667.8781)" font-size="9.9626" font-family="CMMI10" font-style="italic"><tspan y="-573.415" x="335.849">W</tspan></text>
<text xml:space="preserve" transform="matrix(1 0 -0 1 -244.60248 667.8781)" font-size="9.9626" font-family="CMMI10" font-style="italic"><tspan y="-564.557" x="302.563">T</tspan></text>
<text xml:space="preserve" transform="matrix(1 0 -0 1 -244.60251 667.8781)" font-size="9.9626" font-family="CMR10"><tspan y="-655.497" x="296.48">[</tspan></text>
<text xml:space="preserve" transform="matrix(1 0 -0 1 -244.60251 667.8781)" font-size="9.9626" font-family="CMMI10" font-style="italic"><tspan y="-655.497" x="299.247">T</tspan></text>
<text xml:space="preserve" transform="matrix(1 0 -0 1 -244.60251 667.8781)" font-size="9.9626" font-family="CMR10"><tspan y="-655.497" x="306.453">]</tspan></text>
<text xml:space="preserve" transform="matrix(1 0 -0 1 -244.60251 667.8781)" font-size="6.9738" font-family="CMSY7" font-style="italic"><tspan y="-659.112" x="309.22">C</tspan><tspan y="-652.753" x="309.22">B</tspan></text>
<text xml:space="preserve" transform="matrix(1 0 -0 1 -244.6025 667.8781)" font-size="9.9626" font-family="CMR10"><tspan y="-609.761" x="252.359 258.44615">[]</tspan></text>
<text xml:space="preserve" transform="matrix(1 0 -0 1 -244.6025 667.8781)" font-size="6.9738" font-family="CMSY7" font-style="italic"><tspan y="-608.26699" x="261.215">B</tspan></text>
<text xml:space="preserve" transform="matrix(1 0 -0 1 -244.60248 667.8781)" font-size="9.9626" font-family="CMR10"><tspan y="-609.761" x="344.861 350.94813">[]</tspan></text>
<text xml:space="preserve" transform="matrix(1 0 -0 1 -244.60248 667.8781)" font-size="6.9738" font-family="CMSY7" font-style="italic"><tspan y="-608.26699" x="353.71699">C</tspan></text>
<text xml:space="preserve" transform="matrix(1 0 -0 1 -244.6025 667.8781)" font-size="9.9626" font-family="CMR10"><tspan y="-89.365" x="303.133">1</tspan></text>
</g>
</svg>
